<?xml version="1.0" encoding="UTF-8" standalone="no"?>
<!-- Created with Inkscape (http://www.inkscape.org/) -->

<svg
   width="25.399996mm"
   height="25.400684mm"
   viewBox="0 0 25.399996 25.400684"
   version="1.1"
   id="svg82176"
   inkscape:version="1.1.2 (0a00cf5339, 2022-02-04)"
   sodipodi:docname="favicon_round.svg"
   inkscape:export-filename="/home/tobias/git/wodore/wodore-frontend-quasar/src/assets/wodore-design/logo/exports/icongenie/favicon_round.png"
   inkscape:export-xdpi="1023.9724"
   inkscape:export-ydpi="1023.9724"
   xmlns:inkscape="http://www.inkscape.org/namespaces/inkscape"
   xmlns:sodipodi="http://sodipodi.sourceforge.net/DTD/sodipodi-0.dtd"
   xmlns="http://www.w3.org/2000/svg"
   xmlns:svg="http://www.w3.org/2000/svg">
  <sodipodi:namedview
     id="namedview82178"
     pagecolor="#ffffff"
     bordercolor="#666666"
     borderopacity="1.0"
     inkscape:pageshadow="2"
     inkscape:pageopacity="0.0"
     inkscape:pagecheckerboard="0"
     inkscape:document-units="mm"
     showgrid="false"
     fit-margin-top="0"
     fit-margin-left="0"
     fit-margin-right="0"
     fit-margin-bottom="0"
     inkscape:zoom="6.2217172"
     inkscape:cx="60.996022"
     inkscape:cy="54.165111"
     inkscape:window-width="2240"
     inkscape:window-height="1363"
     inkscape:window-x="0"
     inkscape:window-y="40"
     inkscape:window-maximized="1"
     inkscape:current-layer="layer1" />
  <defs
     id="defs82173" />
  <g
     inkscape:label="Layer 1"
     inkscape:groupmode="layer"
     id="layer1"
     transform="translate(-88.494434,-98.019736)">
    <path
       id="path39129-0-5"
       style="fill:#bfab25;fill-opacity:1;stroke:none;stroke-width:0.0966932;stroke-linecap:round;stroke-linejoin:round;-inkscape-stroke:none;stop-color:#000000"
       d="m 101.19455,98.327187 a 12.392756,12.400612 0 0 0 -12.392819,12.400623 12.392756,12.400612 0 0 0 9.15654,11.95385 l 0.43144,-2.87542 c 0.0598,-0.36443 -0.237895,-0.74734 -0.617035,-0.79369 l -3.714664,-0.45268 c -0.155633,-0.0187 -0.03729,0.0103 -0.186137,-0.0374 -0.14885,-0.0477 -0.03631,-9.7e-4 -0.172655,-0.0753 -0.136337,-0.0748 -0.03499,-0.007 -0.153588,-0.10627 -0.118579,-0.0991 -0.03286,-0.0115 -0.12912,-0.1311 l -2.315127,-2.89329 c -0.09616,-0.11959 -0.03115,-0.0198 -0.101248,-0.15525 -0.07012,-0.13539 -0.02714,-0.0238 -0.06853,-0.16981 -0.04138,-0.14598 -0.01877,-0.0299 -0.02985,-0.18093 -0.0111,-0.15099 -0.01497,-0.0303 0.0047,-0.18041 0.01963,-0.15018 -0.008,-0.036 0.04172,-0.17954 0.04962,-0.14359 0,-0.0352 0.07806,-0.16669 0.07767,-0.13148 0.0072,-0.034 0.110064,-0.14829 0.102752,-0.11431 0.01189,-0.0317 0.135778,-0.1245 l 2.988102,-2.24217 c 0.123786,-0.0925 0.0203,-0.0275 0.160412,-0.0949 0.140105,-0.0674 0.02486,-0.0262 0.175887,-0.066 0.15102,-0.0398 0.02853,-0.0215 0.184702,-0.0321 0.156157,-0.0106 0.03424,-0.0113 0.189556,0.008 l 3.948818,0.48011 c 0.364839,0.0436 0.739236,-0.22969 0.795267,-0.58047 l 0.06042,-0.37351 c 0.0023,-0.0107 0.0046,-0.0216 0.0066,-0.0324 l 0.003,-0.0267 c 0.0011,-0.014 0.0013,-0.028 0.0016,-0.0421 l -0.0038,-0.17034 c 0.01704,-0.36006 -0.305178,-0.70308 -0.678018,-0.72163 l -1.43173,-0.0675 h -0.003 c -0.156552,-0.007 -0.03208,0.009 -0.184163,-0.0281 -0.152075,-0.0366 -0.03863,0.004 -0.180383,-0.061 -0.141752,-0.0646 -0.03551,-0.002 -0.161503,-0.0922 -0.125978,-0.0901 -0.03382,-0.0109 -0.139192,-0.12293 -0.105398,-0.11204 -0.03098,-0.0176 -0.111685,-0.14725 -0.08069,-0.12973 -0.0289,-0.0199 -0.08182,-0.16235 -0.05299,-0.14243 -0.02236,-0.0299 -0.0455,-0.17955 -0.02275,-0.14722 -0.01854,-0.0387 -0.01115,-0.17901 v -0.003 l 0.261491,-5.16917 c 0.0078,-0.15097 -0.0087,-0.0344 0.02951,-0.18093 0.03813,-0.14658 -0.0043,-0.0346 0.06276,-0.17121 0.06697,-0.13661 0.0023,-0.0345 0.09549,-0.15593 0.09327,-0.12137 0.01139,-0.0329 0.127326,-0.13438 0.115987,-0.10153 0.01864,-0.033 0.15287,-0.11079 0.134247,-0.0778 0.0235,-0.0245 0.170853,-0.0755 0.147361,-0.0509 0.02806,-0.0219 0.182894,-0.0443 0.154838,-0.0223 0.03211,-0.0179 0.188485,-0.0105 l 1.422381,0.0665 c 0.372942,0.0165 0.728221,-0.29464 0.747421,-0.65463 l 0.0591,-0.97861 c 0.004,-0.21424 0.1171,-0.41759 0.54187,-0.38356 V 101.07 c 0.55179,0.0446 1.10511,0.0844 1.65275,0.16478 0.61731,0.0539 0.79775,0.52947 0.79601,0.69561 l -0.0153,0.65391 c -0.007,0.35485 0.31301,0.68616 0.68017,0.70374 l 3.48194,0.17294 h 0.003 c 0.15643,0.007 0.0358,-0.0109 0.18776,0.0256 0.15196,0.0365 0.0352,-9.7e-4 0.17696,0.0635 0.14168,0.0644 0.0355,0.002 0.16149,0.0922 0.12598,0.0898 0.0338,0.0112 0.13921,0.12293 v -0.003 l 2.54155,2.71186 c 0.10512,0.11201 0.031,0.0176 0.1115,0.14724 0.0805,0.12965 0.0287,0.023 0.0815,0.16531 0.0528,0.1423 0.0228,0.027 0.0459,0.17658 0.023,0.14951 0.0155,0.0306 0.008,0.18163 -0.008,0.15099 0.0116,0.0315 -0.0263,0.17815 -0.0379,0.14666 0.004,0.0377 -0.0631,0.17434 -0.0667,0.13671 -0.006,0.0339 -0.0985,0.15539 -0.0931,0.12151 -0.009,0.0331 -0.12427,0.13475 h -0.003 l -2.80017,2.46079 c -0.10978,0.0962 -0.0165,0.0313 -0.14945,0.10799 -0.13458,0.0777 -0.0231,0.0249 -0.17085,0.0757 -0.14769,0.0507 -0.0278,0.0222 -0.1829,0.0443 -0.15513,0.0221 -0.0319,0.0181 -0.18847,0.0106 h -0.003 l -3.11291,-0.12606 c -0.38064,-0.0177 -0.74166,0.3076 -0.74976,0.67545 l 0.0119,0.71364 c 0,0.0131 -9.7e-4,0.008 -9.7e-4,0.009 9.7e-4,0.005 0.002,-0.012 -0.003,0.0269 l -0.008,0.0443 c -0.0345,0.18415 0.0127,0.38122 0.1275,0.53202 0.11478,0.15081 0.29541,0.25333 0.48773,0.2766 l 0.48648,0.0789 c 0.15558,0.0189 0.0342,-0.008 0.1829,0.0401 0.14874,0.0479 0.0368,-0.003 0.17302,0.0722 0.13621,0.075 0.0351,0.007 0.15359,0.10645 0.11842,0.0992 0.0359,0.0116 0.13199,0.13126 0.0961,0.11964 0.0283,0.0194 0.0984,0.15489 0.0701,0.13542 0.027,0.024 0.0683,0.16999 0.0413,0.14602 0.0219,0.0303 0.0329,0.18127 0.011,0.15102 0.0118,0.0328 -0.008,0.18302 l -0.67262,5.13254 v 0.003 c -0.018,0.13906 0.008,0.0357 -0.0416,0.1766 -0.0497,0.14317 0.003,0.0328 -0.0744,0.1639 -0.0777,0.13113 -0.008,0.0343 -0.11024,0.14829 -0.1026,0.11402 -0.0124,0.035 -0.13596,0.12762 -0.12362,0.0926 -0.0205,0.0272 -0.16042,0.0948 -0.1399,0.0674 -0.0252,0.0262 -0.17607,0.0662 -0.15084,0.0399 -0.0317,0.0208 -0.18774,0.0316 -0.15604,0.0107 -0.0313,0.0114 -0.18651,-0.007 l -0.6852,-0.0851 c -0.36189,-0.0435 -0.73409,0.22418 -0.79436,0.57143 l -0.4739,2.93256 a 12.392756,12.400612 0 0 0 12.1747,-12.38565 12.392756,12.400612 0 0 0 -12.39263,-12.400614 z"
       inkscape:export-filename="/home/tobias/git/wodore/wodore-design/logo/exports/wodore_favicon_contour_color.png"
       inkscape:export-xdpi="96"
       inkscape:export-ydpi="96" />
  </g>
</svg>
