<?xml version="1.0" encoding="UTF-8" standalone="no"?>
<!-- Created with Inkscape (http://www.inkscape.org/) -->

<svg
   width="25.399996mm"
   height="25.400684mm"
   viewBox="0 0 25.399996 25.400684"
   version="1.1"
   id="svg82176"
   inkscape:version="1.1.2 (0a00cf5339, 2022-02-04)"
   sodipodi:docname="favicon.svg"
   inkscape:export-filename="/home/tobias/git/wodore/wodore-design/logo/exports/favicon.png"
   inkscape:export-xdpi="96"
   inkscape:export-ydpi="96"
   xmlns:inkscape="http://www.inkscape.org/namespaces/inkscape"
   xmlns:sodipodi="http://sodipodi.sourceforge.net/DTD/sodipodi-0.dtd"
   xmlns="http://www.w3.org/2000/svg"
   xmlns:svg="http://www.w3.org/2000/svg">
  <sodipodi:namedview
     id="namedview82178"
     pagecolor="#ffffff"
     bordercolor="#666666"
     borderopacity="1.0"
     inkscape:pageshadow="2"
     inkscape:pageopacity="0.0"
     inkscape:pagecheckerboard="0"
     inkscape:document-units="mm"
     showgrid="false"
     fit-margin-top="0"
     fit-margin-left="0"
     fit-margin-right="0"
     fit-margin-bottom="0"
     inkscape:zoom="0.77771465"
     inkscape:cx="16.072733"
     inkscape:cy="190.30116"
     inkscape:window-width="2560"
     inkscape:window-height="1375"
     inkscape:window-x="2240"
     inkscape:window-y="0"
     inkscape:window-maximized="1"
     inkscape:current-layer="layer1" />
  <defs
     id="defs82173" />
  <g
     inkscape:label="Layer 1"
     inkscape:groupmode="layer"
     id="layer1"
     transform="translate(-88.494434,-98.019736)">
    <path
       id="path39129-0-5"
       style="fill:#bfab25;fill-opacity:1;stroke:none;stroke-width:0.0990901;stroke-linecap:round;stroke-linejoin:round;-inkscape-stroke:none;stop-color:#000000"
       d="m 101.19446,98.020208 a 12.699956,12.708007 0 0 0 -12.700026,12.708022 12.699956,12.708007 0 0 0 9.383519,12.25017 l 0.442134,-2.9467 c 0.06128,-0.37346 -0.243792,-0.76587 -0.63233,-0.81337 l -3.806746,-0.4639 c -0.159491,-0.0192 -0.03821,0.0106 -0.190751,-0.0383 -0.15254,-0.0489 -0.03721,-0.001 -0.176935,-0.0772 -0.139716,-0.0767 -0.03586,-0.007 -0.157395,-0.1089 -0.121518,-0.10154 -0.03367,-0.0118 -0.132321,-0.13435 l -2.372516,-2.96502 c -0.09854,-0.12255 -0.03192,-0.0203 -0.103757,-0.15909 -0.07186,-0.13875 -0.02781,-0.0244 -0.07023,-0.17402 -0.04241,-0.1496 -0.01923,-0.0307 -0.03059,-0.18542 -0.01137,-0.15473 -0.01534,-0.031 0.0048,-0.18488 0.02012,-0.1539 -0.0082,-0.0369 0.04275,-0.18399 0.05085,-0.14715 0,-0.0361 0.07999,-0.17082 0.0796,-0.13474 0.0074,-0.0348 0.112792,-0.15197 0.105299,-0.11714 0.01219,-0.0325 0.139144,-0.12758 l 3.062173,-2.29776 c 0.126855,-0.0948 0.0208,-0.0282 0.164389,-0.0973 0.143578,-0.0691 0.02548,-0.0268 0.180247,-0.0676 0.154763,-0.0408 0.02924,-0.022 0.18928,-0.0329 0.160028,-0.0109 0.03509,-0.0116 0.194255,0.008 l 4.046704,0.49201 c 0.373883,0.0447 0.75756,-0.23538 0.81498,-0.59485 l 0.06192,-0.38277 c 0.0024,-0.011 0.0047,-0.0221 0.0068,-0.0332 l 0.0031,-0.0274 c 0.0011,-0.0143 0.0013,-0.0287 0.0016,-0.0431 l -0.0039,-0.17456 c 0.01746,-0.36899 -0.312743,-0.72051 -0.694825,-0.73952 l -1.467221,-0.0692 h -0.0031 c -0.160433,-0.007 -0.03288,0.009 -0.188728,-0.0288 -0.155845,-0.0375 -0.03959,0.004 -0.184854,-0.0625 -0.145266,-0.0662 -0.03639,-0.002 -0.165507,-0.0945 -0.129101,-0.0923 -0.03466,-0.0112 -0.142642,-0.12598 -0.108011,-0.11481 -0.03175,-0.018 -0.114454,-0.1509 -0.08269,-0.13294 -0.02962,-0.0204 -0.08385,-0.16637 -0.0543,-0.14596 -0.02291,-0.0306 -0.04663,-0.184 -0.02331,-0.15087 -0.019,-0.0397 -0.01143,-0.18345 v -0.003 l 0.267973,-5.29731 c 0.008,-0.15471 -0.0089,-0.0352 0.03024,-0.18542 0.03907,-0.15021 -0.0044,-0.0355 0.06432,-0.17545 0.06863,-0.14 0.0024,-0.0354 0.09786,-0.15979 0.09558,-0.12438 0.01167,-0.0337 0.130482,-0.13772 0.118862,-0.10404 0.0191,-0.0338 0.15666,-0.11353 0.137575,-0.0797 0.02408,-0.0251 0.175088,-0.0774 0.151014,-0.0522 0.02876,-0.0225 0.187428,-0.0454 0.158676,-0.0229 0.03291,-0.0183 0.193157,-0.0108 l 1.45764,0.0681 c 0.382187,0.0169 0.746283,-0.30194 0.765963,-0.67085 l 0.0606,-1.00287 c 0.004,-0.21955 0.12001,-0.42794 0.5553,-0.39307 v -10e-4 c 0.56547,0.0457 1.13251,0.0865 1.69372,0.16886 0.63262,0.0552 0.81752,0.5426 0.81574,0.71285 l -0.0157,0.67012 c -0.007,0.36365 0.32077,0.70317 0.69703,0.72119 l 3.56825,0.17723 h 0.003 c 0.16031,0.007 0.0367,-0.0112 0.19242,0.0262 0.15572,0.0374 0.0361,-0.001 0.18135,0.0651 0.1452,0.066 0.0364,0.002 0.1655,0.0945 0.1291,0.092 0.0346,0.0115 0.14265,0.12598 v -0.003 l 2.60455,2.77909 c 0.10772,0.11478 0.0318,0.018 0.11426,0.15089 0.0825,0.13286 0.0294,0.0236 0.0835,0.16941 0.0541,0.14582 0.0234,0.0277 0.047,0.18095 0.0236,0.15322 0.0159,0.0314 0.008,0.18613 -0.008,0.15474 0.0119,0.0323 -0.0269,0.18257 -0.0388,0.1503 0.004,0.0386 -0.0647,0.17866 -0.0684,0.1401 -0.006,0.0347 -0.10099,0.15924 -0.0954,0.12453 -0.009,0.0339 -0.12735,0.13809 h -0.003 l -2.86958,2.52179 c -0.1125,0.0986 -0.0169,0.0321 -0.15316,0.11067 -0.13791,0.0796 -0.0237,0.0255 -0.17508,0.0776 -0.15135,0.052 -0.0285,0.0228 -0.18743,0.0454 -0.15898,0.0226 -0.0327,0.0186 -0.19315,0.0109 h -0.003 l -3.19007,-0.12918 c -0.39008,-0.0181 -0.76005,0.31522 -0.76835,0.69219 l 0.0122,0.73133 c 0,0.0134 -10e-4,0.008 -10e-4,0.009 10e-4,0.005 0.002,-0.0123 -0.003,0.0276 l -0.008,0.0454 c -0.0353,0.18872 0.013,0.39067 0.13067,0.54521 0.11762,0.15455 0.30273,0.25961 0.49982,0.28346 l 0.49854,0.0808 c 0.15943,0.0194 0.035,-0.008 0.18743,0.0411 0.15243,0.0491 0.0377,-0.003 0.17731,0.074 0.13958,0.0769 0.036,0.007 0.15739,0.10908 0.12136,0.10168 0.0368,0.0119 0.13527,0.13452 0.0985,0.1226 0.029,0.0199 0.10082,0.15873 0.0718,0.13877 0.0277,0.0246 0.07,0.1742 0.0423,0.14964 0.0224,0.031 0.0337,0.18577 0.0113,0.15476 0.0121,0.0336 -0.008,0.18755 l -0.68928,5.25977 v 0.003 c -0.0185,0.14251 0.008,0.0366 -0.0426,0.18098 -0.0509,0.14672 0.003,0.0336 -0.0763,0.16796 -0.0796,0.13438 -0.008,0.0351 -0.11298,0.15197 -0.10513,0.11685 -0.0127,0.0359 -0.13933,0.13078 -0.12669,0.0949 -0.021,0.0279 -0.1644,0.0972 -0.14337,0.0691 -0.0258,0.0269 -0.18043,0.0678 -0.15458,0.0409 -0.0325,0.0213 -0.1924,0.0324 -0.1599,0.011 -0.0321,0.0117 -0.19113,-0.007 l -0.70219,-0.0872 c -0.37086,-0.0446 -0.75228,0.22974 -0.81405,0.5856 l -0.48564,3.00525 A 12.699956,12.708007 0 0 0 113.89443,110.72775 12.699956,12.708007 0 0 0 101.1946,98.019736 Z"
       inkscape:export-filename="/home/tobias/git/wodore/wodore-design/logo/exports/wodore_favicon_contour_color.png"
       inkscape:export-xdpi="96"
       inkscape:export-ydpi="96" />
  </g>
</svg>
