<?xml version="1.0" encoding="UTF-8" standalone="no"?>
<!-- Created with Inkscape (http://www.inkscape.org/) -->

<svg
   width="42"
   height="48"
   viewBox="0 0 42 48"
   version="1.1"
   id="svg55"
   inkscape:version="1.3.2 (091e20ef0f, 2023-11-25)"
   sodipodi:docname="logo.svg"
   shape-rendering="auto"
   inkscape:export-filename="exports/icongenie/favicon_shape.png"
   inkscape:export-xdpi="2048"
   inkscape:export-ydpi="2048"
   xmlns:inkscape="http://www.inkscape.org/namespaces/inkscape"
   xmlns:sodipodi="http://sodipodi.sourceforge.net/DTD/sodipodi-0.dtd"
   xmlns="http://www.w3.org/2000/svg"
   xmlns:svg="http://www.w3.org/2000/svg">
  <sodipodi:namedview
     id="namedview57"
     pagecolor="#ffffff"
     bordercolor="#666666"
     borderopacity="1.0"
     inkscape:pageshadow="2"
     inkscape:pageopacity="0.0"
     inkscape:pagecheckerboard="false"
     inkscape:document-units="px"
     showgrid="true"
     units="px"
     showguides="false"
     inkscape:guide-bbox="true"
     inkscape:zoom="16"
     inkscape:cx="9.78125"
     inkscape:cy="24.6875"
     inkscape:window-width="2560"
     inkscape:window-height="1375"
     inkscape:window-x="2240"
     inkscape:window-y="0"
     inkscape:window-maximized="1"
     inkscape:current-layer="g1"
     guidecolor="#a375ff"
     guideopacity="0.49803922"
     inkscape:lockguides="false"
     borderlayer="true"
     inkscape:snap-bbox="true"
     inkscape:bbox-paths="true"
     inkscape:bbox-nodes="true"
     inkscape:snap-bbox-edge-midpoints="true"
     inkscape:snap-bbox-midpoints="true"
     guidetolerance="10000"
     inkscape:showpageshadow="2"
     inkscape:deskcolor="#d1d1d1"
     shape-rendering="crispEdges">
    <sodipodi:guide
       position="44,24"
       orientation="1,0"
       id="guide2872"
       inkscape:locked="false" />
    <sodipodi:guide
       position="24,44"
       orientation="0,-1"
       id="guide2912"
       inkscape:locked="false" />
    <sodipodi:guide
       position="4,24"
       orientation="1,0"
       id="guide7803"
       inkscape:locked="false" />
    <sodipodi:guide
       position="9,4"
       orientation="0,-1"
       id="guide7805"
       inkscape:locked="false" />
    <sodipodi:guide
       position="24,15"
       orientation="1,0"
       id="guide7807"
       inkscape:locked="false" />
    <sodipodi:guide
       position="4,24"
       orientation="0,-1"
       id="guide7809"
       inkscape:locked="false" />
    <sodipodi:guide
       position="44,48"
       orientation="0,48"
       id="guide7813"
       inkscape:locked="false" />
    <sodipodi:guide
       position="12.7,0"
       orientation="0,-48"
       id="guide7817"
       inkscape:locked="false" />
    <sodipodi:guide
       position="0,0"
       orientation="-48,0"
       id="guide7819"
       inkscape:locked="false" />
    <inkscape:grid
       type="xygrid"
       id="grid929"
       empspacing="4"
       empcolor="#0000e8"
       empopacity="0.22745098"
       originx="0"
       originy="0"
       spacingy="1"
       spacingx="1"
       units="px"
       visible="true"
       enabled="true"
       color="#0099e5"
       opacity="0.19215686" />
    <inkscape:grid
       id="grid2"
       units="px"
       originx="1.5"
       originy="1.5"
       spacingx="3"
       spacingy="3"
       empcolor="#6e4300"
       empopacity="0.55686275"
       color="#04b300"
       opacity="0.50196078"
       empspacing="3"
       dotted="false"
       gridanglex="30"
       gridanglez="30"
       visible="true"
       snapvisiblegridlinesonly="true"
       enabled="false" />
  </sodipodi:namedview>
  <defs
     id="defs52">
    <inkscape:path-effect
       effect="fillet_chamfer"
       id="path-effect5"
       is_visible="true"
       lpeversion="1"
       nodesatellites_param="F,0,0,1,0,0,0,1 @ F,0,0,1,0,0,0,1 @ F,0,0,1,0,0,0,1 @ F,0,0,1,0,0,0,1 @ F,0,0,1,0,0,0,1 @ F,0,0,1,0,1.1707737,0,1 | F,0,0,1,0,0,0,1 @ F,0,0,1,0,0,0,1 @ F,0,0,1,0,0,0,1 @ F,0,0,1,0,0,0,1 @ F,0,0,1,0,0.85198168,0,1 @ F,0,0,1,0,0.83521755,0,1 | F,0,0,1,0,0,0,1 @ F,0,0,1,0,0,0,1 @ F,0,0,1,0,0,0,1 @ F,0,0,1,0,0,0,1 @ F,0,0,1,0,0,0,1 @ F,0,0,1,0,1.0528113,0,1"
       radius="0"
       unit="px"
       method="auto"
       mode="F"
       chamfer_steps="1"
       flexible="false"
       use_knot_distance="true"
       apply_no_radius="true"
       apply_with_radius="true"
       only_selected="false"
       hide_knots="false" />
    <inkscape:path-effect
       effect="fillet_chamfer"
       id="path-effect15"
       is_visible="true"
       lpeversion="1"
       nodesatellites_param="F,0,0,1,0,1,0,1 @ F,0,0,1,0,1,0,1 @ F,0,0,1,0,1,0,1 @ F,0,0,1,0,1,0,1 @ F,0,0,1,0,1,0,1"
       radius="1"
       unit="px"
       method="auto"
       mode="F"
       chamfer_steps="1"
       flexible="false"
       use_knot_distance="true"
       apply_no_radius="true"
       apply_with_radius="true"
       only_selected="false"
       hide_knots="false" />
    <inkscape:path-effect
       effect="fillet_chamfer"
       id="path-effect15-3"
       is_visible="true"
       lpeversion="1"
       nodesatellites_param="F,0,0,1,0,1,0,1 @ F,0,0,1,0,1,0,1 @ F,0,0,1,0,1,0,1 @ F,0,0,1,0,1,0,1 @ F,0,0,1,0,1,0,1"
       radius="1"
       unit="px"
       method="auto"
       mode="F"
       chamfer_steps="1"
       flexible="false"
       use_knot_distance="true"
       apply_no_radius="true"
       apply_with_radius="true"
       only_selected="false"
       hide_knots="false" />
    <inkscape:path-effect
       effect="fillet_chamfer"
       id="path-effect10-7-3"
       is_visible="true"
       lpeversion="1"
       nodesatellites_param="F,0,0,1,0,0.97047272,0,1 @ F,0,0,1,0,1.4617242,0,1 @ F,0,0,1,0,0,0,1 @ F,0,0,1,0,0,0,1 @ F,0,0,1,0,0,0,1 @ F,0,0,1,0,0,0,1 @ F,0,0,1,0,1.1968887,0,1 @ F,0,0,1,0,1.1727603,0,1 @ F,0,0,1,0,0,0,1 @ F,0,0,1,0,0,0,1 @ F,0,0,1,0,0,0,1 @ F,0,0,1,0,0,0,1 @ F,0,0,1,0,0,0,1 @ F,0,0,1,0,0,0,1 @ F,0,0,1,0,1.9372453,0,1 @ F,0,0,1,0,0,0,1 @ F,0,0,1,0,0,0,1 @ F,0,0,1,0,0,0,1 @ F,0,0,1,0,0,0,1 @ F,0,0,1,0,1.8091916,0,1 @ F,0,0,1,0,0,0,1 @ F,0,0,1,0,0,0,1 @ F,0,0,1,0,0,0,1 @ F,0,0,1,0,0,0,1 @ F,0,0,1,0,1.1131122,0,1 @ F,0,0,1,0,1.3870289,0,1 @ F,0,0,1,0,0,0,1 @ F,0,0,1,0,0,0,1 @ F,0,0,1,0,0,0,1 @ F,0,0,1,0,0,0,1 @ F,0,0,1,0,0,0,1 @ F,0,0,1,0,0,0,1 @ F,0,0,1,0,1.0946964,0,1 @ F,0,0,1,0,1.0112566,0,1"
       radius="0"
       unit="px"
       method="auto"
       mode="F"
       chamfer_steps="1"
       flexible="false"
       use_knot_distance="true"
       apply_no_radius="true"
       apply_with_radius="true"
       only_selected="false"
       hide_knots="false" />
    <filter
       inkscape:collect="always"
       style="color-interpolation-filters:sRGB"
       id="filter1"
       x="-0.11593954"
       y="-0.091573928"
       width="1.2318791"
       height="1.1831479">
      <feGaussianBlur
         inkscape:collect="always"
         stdDeviation="1.4690613"
         id="feGaussianBlur1" />
    </filter>
  </defs>
  <g
     inkscape:groupmode="layer"
     id="layer10"
     inkscape:label="shadow"
     style="display:none">
    <path
       id="rect3-5-5"
       style="display:inline;opacity:1;mix-blend-mode:normal;fill:#1c1c1c;fill-opacity:0.0865943;stroke-width:2.76505;filter:url(#filter1)"
       d="m 16.725447,6.8074562 c 7.65e-4,0.1099466 1.69e-4,0.2185919 -0.0013,0.3252551 -0.01084,0.8037556 -0.667678,1.4984728 -1.473215,1.5516221 L 12.35007,8.8757346 c -0.829171,0.054812 -1.479824,0.7692091 -1.453117,1.5954774 l 0.285794,8.975329 c 0.02624,0.826307 0.719843,1.451818 1.549021,1.396961 l 3.02824,-0.199625 c 0.659592,-0.04348 1.179832,0.456952 1.156034,1.117545 -0.0104,0.288722 -0.02163,0.577001 -0.03365,0.864864 -0.02703,0.647132 -0.577505,1.139939 -1.224028,1.100957 l -4.439329,-0.267672 c -0.959299,-0.05808 -1.8998319,0.267392 -2.6145499,0.904755 l -4.0805946,3.638862 c -0.6158444,0.549761 -0.6663426,1.497691 -0.1128028,2.117483 l 3.6640971,4.105004 c 0.6417259,0.718725 1.5409175,1.154938 2.4997942,1.212693 l 3.387441,0.204597 c 1.067964,0.0645 1.849267,0.980008 1.742753,2.044603 -0.119738,1.196767 -0.241261,2.39271 -0.362717,3.588635 -0.110712,1.090129 0.882287,1.976963 1.977979,1.976963 l 2.045223,0.0013 c 1.095692,0 1.85061,-0.890434 1.97776,-1.978775 0.130429,-1.11641 0.256644,-2.234387 0.379628,-3.354058 0.109095,-0.993215 1.003315,-1.74993 2.000693,-1.6898 l 1.827392,0.11017 c 0.82681,0.05018 1.533426,-0.579054 1.578587,-1.405711 l 0.482084,-8.985091 c 0.04453,-0.826859 -0.589644,-1.537759 -1.416615,-1.587995 l -2.184639,-0.132148 c -0.613633,-0.03712 -1.086088,-0.564947 -1.060134,-1.179152 0.0211,-0.499312 0.03977,-0.99979 0.05568,-1.501585 0.02427,-0.765646 0.656205,-1.427526 1.420569,-1.478087 l 3.315763,-0.219328 c 0.961048,-0.0634 1.870607,-0.504641 2.528602,-1.226651 l 3.759287,-4.123181 c 0.568169,-0.623416 0.537315,-1.57163 -0.06888,-2.116812 L 29.956255,8.7752369 C 29.255127,8.143163 28.321514,7.8236908 27.360691,7.8870634 L 23.778718,8.1226445 C 23.175438,8.1623214 22.610062,7.7103878 22.503476,7.1153913 22.436831,6.7433604 22.363757,6.3037331 22.304939,5.8151338 22.238545,5.2636029 21.76346,4.763856 21.205183,4.7543788 19.660643,4.728159 18.632374,5.0354304 17.566461,5.464205 17.069703,5.6640311 16.721719,6.2717278 16.725447,6.8074562 Z"
       transform="matrix(0.70285994,-0.0768553,-0.09188145,0.54562918,17.430212,19.035603)"
       sodipodi:nodetypes="cccccccccccccccsccscccccccccccccccc"
       inkscape:label="shadow"
       inkscape:original-d="m 16.672276,5.8388689 c 0.120838,1.0428065 -0.0072,2.1434825 0.03724,2.7492291 L 12.35007,8.8757346 c -0.829171,0.054812 -1.479824,0.7692091 -1.453117,1.5954774 l 0.285794,8.975329 c 0.02624,0.826307 0.719843,1.451818 1.549021,1.396961 l 4.222537,-0.278354 c -0.03025,1.083793 -0.07241,2.160906 -0.125304,3.232679 l -5.609963,-0.338256 c -0.959299,-0.05808 -1.8998319,0.267392 -2.6145499,0.904755 l -4.0805946,3.638862 c -0.6158444,0.549761 -0.6663426,1.497691 -0.1128028,2.117483 l 3.6640971,4.105004 c 0.6417259,0.718725 1.5409175,1.154938 2.4997942,1.212693 l 5.321162,0.321391 c -0.180241,1.840807 -0.367041,3.678647 -0.553685,5.516444 -0.110712,1.090129 0.882287,1.976963 1.977979,1.976963 l 2.045223,0.0013 c 1.095692,0 1.85061,-0.890434 1.97776,-1.978775 0.200213,-1.713732 0.390498,-3.431158 0.574408,-5.152733 l 3.633305,0.219045 c 0.82681,0.05018 1.533426,-0.579054 1.578587,-1.405711 l 0.482084,-8.985091 c 0.04453,-0.826859 -0.589644,-1.537759 -1.416615,-1.587995 l -3.29572,-0.199357 c 0.06527,-1.324932 0.115153,-2.657341 0.143189,-4.000067 l 4.699767,-0.310876 c 0.961048,-0.0634 1.870607,-0.504641 2.528602,-1.226651 l 3.759287,-4.123181 c 0.568169,-0.623416 0.537315,-1.57163 -0.06888,-2.116812 L 29.956255,8.7752369 C 29.255127,8.143163 28.321514,7.8236908 27.360691,7.8870634 L 22.686382,8.1944859 C 22.646746,7.7183532 22.308929,6.4287833 22.214457,4.8133668 19.59072,4.5618035 18.337629,5.1310825 16.672276,5.8388689 Z"
       inkscape:path-effect="#path-effect10-7-3" />
  </g>
  <g
     inkscape:groupmode="layer"
     id="layer9"
     inkscape:label="arrows"
     style="display:inline" />
  <g
     inkscape:groupmode="layer"
     id="layer7"
     inkscape:label="glow"
     style="display:inline">
    <g
       id="g1"
       transform="matrix(1.0276047,0,0,1.0276047,-3.4799846,-0.57273401)">
      <path
         id="path1"
         style="display:inline;fill:#1c1c1c;fill-opacity:1;stroke-width:3.35618"
         d="m 27.039013,0.97383323 c -0.326356,-0.006542 -0.08106,-0.001014 -0.122589,0.002354 C 24.974545,0.85397877 22.8262,1.2314375 22.128405,1.3675268 21.43061,1.5036161 20.969491,2.0040016 21.018038,2.6688495 c 0.02758,0.3777604 0.05476,0.7531727 0.08016,1.1292275 0.04493,0.6651063 -0.461589,1.2379021 -1.126871,1.2801054 3.45897,0.6885633 6.609735,0.2768274 9.627902,-0.6082268 C 28.933944,4.5121169 28.357444,4.0056339 28.309693,3.340728 28.279638,2.9222089 28.250525,2.5025756 28.217754,2.0818398 28.169224,1.4587771 27.365369,0.98038049 27.039013,0.97383323 Z M 25.629246,18.145635 c -1.452568,-0.0092 -3.110185,0.332017 -5.20529,1.419196 0.665271,-0.04233 1.205876,0.462609 1.204666,1.129228 -0.0017,0.899806 -0.0072,1.79939 -0.0165,2.699301 -0.0069,0.666583 -0.553364,1.175839 -1.218812,1.1363 2.749128,1.16586 5.879519,1.560866 9.693912,0.572865 -0.665446,-0.03953 -1.197607,-0.611167 -1.190522,-1.277748 0.0127,-1.195103 0.02036,-2.392245 0.01887,-3.592782 -8.45e-4,-0.666617 0.53467,-1.240254 1.199952,-1.282463 -1.457174,-0.333044 -2.840019,-0.79347 -4.486263,-0.803897 z m -2.050998,20.418036 c -1.205831,-0.01299 -2.405526,0.118711 -3.597497,0.450277 0.66545,0.03951 1.183684,0.611738 1.15516,1.277748 -0.07119,1.662138 -0.146088,3.101652 -0.221602,4.839882 -0.02204,0.507462 0.432097,0.934719 0.939941,0.924856 4.28037,-0.08313 3.578802,1.123337 5.250772,0.741876 0.546055,-0.124583 1.035142,-0.50559 1.06086,-1.065577 0.07724,-1.681708 0.151846,-3.348805 0.22396,-5.00962 0.02892,-0.665994 0.591098,-1.173674 1.256531,-1.133944 -2.032148,-0.579188 -4.058406,-1.003849 -6.068125,-1.025498 z"
         sodipodi:nodetypes="zczccccsczscccccsscsscsssssscsc"
         inkscape:label="post" />
      <path
         style="display:inline;fill:#1c1c1c;stroke:none;stroke-width:0.844917;stroke-dasharray:none"
         d="m 12.724706,24.073177 c -0.77148,-0.04584 -1.529568,0.216692 -2.10747,0.729831 l -5.8519183,5.196098 c -0.498498,0.442632 -0.5438439,1.205547 -0.1012886,1.704112 l 5.1963678,5.854033 c 0.5130431,0.577975 1.2347111,0.928422 2.0061851,0.974219 l 19.278929,1.146063 c 0.665364,0.03974 1.236894,-0.467582 1.276379,-1.132961 l 0.715118,-12.050903 c 0.03949,-0.665461 -0.46794,-1.236947 -1.133399,-1.276476 l -1.916157,-0.113822 z"
         id="rect3-6-7-5"
         inkscape:label="bottom_arrow"
         sodipodi:nodetypes="ccccsccscscc" />
      <path
         style="display:inline;fill:#408c6b;fill-opacity:1;stroke:none;stroke-width:3.5;stroke-linecap:round;stroke-linejoin:round;stroke-dasharray:none;stroke-opacity:1;paint-order:stroke fill markers"
         d="M 15.398658,9.3598458 29.054592,8.5353445 a 2.3875902,2.3875902 19.270372 0 1 1.741375,0.6088102 l 2.637177,2.3741823 a 1.0270319,1.0270319 86.23185 0 1 0.09417,1.429848 l -2.582044,3.026626 a 2.3486942,2.3486942 153.53059 0 1 -1.647254,0.820193 L 16.00281,17.586429 a 1.0139486,1.0139486 41.196544 0 1 -1.071476,-0.937892 l -0.457615,-6.23111 a 0.98707868,0.98707868 131.17229 0 1 0.924939,-1.0575812 z"
         id="path14-1"
         sodipodi:nodetypes="cccccc"
         transform="matrix(-1.1975622,-0.15083607,0.15083607,-1.1975622,46.2305,51.062437)"
         inkscape:path-effect="#path-effect15-3"
         inkscape:original-d="m 14.400476,9.4201128 15.652298,-0.9450353 4.123563,3.7123365 -3.880086,4.548168 -15.291674,0.910269 z"
         inkscape:label="bottom_arrow_color" />
      <path
         style="display:inline;fill:#1c1c1c;stroke:none;stroke-width:0.844917;stroke-dasharray:none"
         d="m 35.806503,18.587468 c 0.771308,-0.04893 1.491603,-0.402204 2.002496,-0.982116 l 5.17486,-5.873972 c 0.440623,-0.50015 0.39224,-1.262829 -0.108053,-1.703288 L 37,4.8550026 C 36.419918,4.3442956 35.660761,4.0848645 34.889445,4.1337506 l -5.290277,0.3352993 -9.627784,0.6101134 -4.354372,0.2762272 c -0.665284,0.042204 -1.17039,0.6157351 -1.128186,1.2810186 l 0.764222,12.0467929 c 0.0422,0.665247 0.615766,1.170288 1.281005,1.127964"
         id="path28"
         inkscape:label="top_arrow" />
      <path
         style="display:inline;fill:#2a5b46;fill-opacity:1;stroke:none;stroke-width:3.5;stroke-linecap:round;stroke-linejoin:round;stroke-dasharray:none;stroke-opacity:1;paint-order:stroke fill markers"
         d="M 15.751675,9.6947829 29.308456,8.8302596 a 2.4101154,2.4101154 18.885594 0 1 1.747853,0.5979328 l 2.631845,2.3219196 a 1.0121654,1.0121654 86.073628 0 1 0.09742,1.419398 L 31.2358,16.131051 a 2.386615,2.386615 153.46108 0 1 -1.650255,0.824186 L 16.301328,17.838754 A 1.0009785,1.0009785 41.166914 0 1 15.236194,16.907386 L 14.82104,10.756154 a 0.99630215,0.99630215 131.24503 0 1 0.930635,-1.0613711 z"
         id="path14"
         sodipodi:nodetypes="cccccc"
         transform="matrix(1.207024,0,0,1.207024,-0.80008044,-3.9767209)"
         inkscape:path-effect="#path-effect15"
         inkscape:original-d="m 14.753702,9.7584242 15.552727,-0.9918059 4.131605,3.6450677 -3.854693,4.477189 -15.279809,1.016241 z"
         inkscape:label="top_arrow_color" />
      <path
         id="path1-36"
         style="display:inline;fill:#575757;fill-opacity:0.146715;stroke-width:2.78054"
         inkscape:label="post_glow"
         d="m 40.095703,4.2890625 c -0.102945,0.01845 -0.238518,0.041021 -0.308594,0.054687 -0.578111,0.1127477 -0.960142,0.5273098 -0.919921,1.078125 0.02285,0.3129681 0.04537,0.6239918 0.06641,0.9355469 C 38.970814,6.9084512 38.551174,7.383004 38,7.4179688 l 1.239765,-0.078428 c 0.64531,-0.040823 1.12091,-0.5959455 1.055172,-1.2391929 C 40.233311,5.4973506 40.166917,4.893528 40.095703,4.2890625 Z M 38.375,19.419922 c 0.551166,-0.03507 0.999049,0.383264 0.998047,0.935547 -0.0014,0.745474 -0.006,1.490767 -0.01367,2.236328 -0.0057,0.552252 -0.458453,0.974163 -1.009766,0.941406 l 1.78818,0.105888 c 0.469714,0.02781 0.854395,-0.331064 0.858022,-0.801586 0.0072,-0.932408 0.01337,-2.059508 0.01716,-2.811552 0.0023,-0.46127 -0.36855,-0.802889 -0.828102,-0.763025 z m -0.367188,16.113281 c 0.551445,0.03268 0.980663,0.506815 0.957032,1.058594 -0.05898,1.377053 -0.121032,2.569671 -0.183594,4.009765 -0.01826,0.420424 0.358492,0.769149 0.779297,0.765626 0.335583,-0.0028 0.592069,0.0676 0.857809,0.0061 0.05769,-1.467672 0.124641,-3.101383 0.186129,-4.631877 0.02334,-0.580982 -0.428536,-1.079835 -1.008971,-1.114206 z"
         transform="matrix(1.207024,0,0,1.207024,-25.895589,-3.875483)"
         sodipodi:nodetypes="cccccccccccccccsssccc"
         inkscape:path-effect="#path-effect5"
         inkscape:original-d="m 40.095703,4.2890625 c -0.102945,0.01845 -0.238518,0.041021 -0.308594,0.054687 -0.578111,0.1127477 -0.960142,0.5273098 -0.919921,1.078125 0.02285,0.3129681 0.04537,0.6239918 0.06641,0.9355469 C 38.970814,6.9084512 38.551174,7.383004 38,7.4179688 L 40.408203,7.265625 c -0.09128,-0.9899077 -0.19537,-1.9823654 -0.3125,-2.9765625 z M 38.375,19.419922 c 0.551166,-0.03507 0.999049,0.383264 0.998047,0.935547 -0.0014,0.745474 -0.006,1.490767 -0.01367,2.236328 -0.0057,0.552252 -0.458453,0.974163 -1.009766,0.941406 l 2.638672,0.15625 c 0.01543,-1.475997 0.02868,-4.498704 0.02868,-4.498704 z m -0.367188,16.113281 c 0.551445,0.03268 0.980663,0.506815 0.957032,1.058594 -0.05898,1.377053 -0.121032,2.569671 -0.183594,4.009765 -0.01826,0.420424 0.358492,0.769149 0.779297,0.765626 0.335583,-0.0028 0.592069,0.0676 0.857809,0.0061 0.07116,-1.810431 0.156418,-3.873509 0.228128,-5.683849 z" />
      <path
         id="path14-1-7"
         clip-path="none"
         mask="none"
         style="display:inline;fill:#1a4231;fill-opacity:0.230561;stroke:none;stroke-width:4.22458;stroke-linecap:round;stroke-linejoin:round;stroke-dasharray:none;stroke-opacity:1;paint-order:stroke fill markers"
         inkscape:label="bottom_arrow_glow"
         d="m 29.043045,27.542502 -0.572871,4.922394 a 3.26508,3.26508 0 0 1 -3.30045,2.885543 l -14.764828,-0.261679 0.325332,0.377195 a 2.8818786,2.8818786 0 0 0 1.992061,0.992495 l 16.478705,1.072647 a 1.1914276,1.1914276 0 0 0 1.26832,-1.126869 l 0.391338,-7.532112 a 1.2238603,1.2238603 0 0 0 -1.141014,-1.284822 z" />
      <path
         id="path14-11"
         clip-path="none"
         style="display:inline;fill:#133426;fill-opacity:0.325573;stroke:none;stroke-width:4.22458;stroke-linecap:round;stroke-linejoin:round;stroke-dasharray:none;stroke-opacity:1;paint-order:stroke fill markers"
         inkscape:label="top_arrow_glow"
         d="m 39.885043,10.229252 -3.378252,3.081212 a 5.5370018,5.5370018 0 0 1 -3.390041,1.435698 l -15.575795,0.954776 0.04951,0.730814 a 1.208205,1.208205 0 0 0 1.28482,1.124513 L 34.910789,16.488331 A 2.8807015,2.8807015 0 0 0 36.90285,15.49348 l 3.076497,-3.573923 a 1.2217079,1.2217079 0 0 0 -0.0943,-1.690305 z" />
    </g>
  </g>
  <g
     inkscape:groupmode="layer"
     id="layer3"
     inkscape:label="helper_lines"
     style="display:none"
     sodipodi:insensitive="true"
     inkscape:highlight-color="#fbbacc">
    <circle
       style="opacity:0.594356;fill:none;stroke:#cec3ff;stroke-width:0.1;stroke-linecap:round;stroke-linejoin:round;stroke-miterlimit:4;stroke-dasharray:none;stroke-dashoffset:0;stroke-opacity:1;image-rendering:auto;stop-color:#000000"
       id="path1371"
       cx="24"
       cy="24"
       r="24" />
    <ellipse
       style="display:inline;opacity:0.250356;fill:none;stroke:#cec3ff;stroke-width:0.0999995;stroke-linecap:round;stroke-linejoin:round;stroke-miterlimit:4;stroke-dasharray:none;stroke-dashoffset:0;stroke-opacity:1;stop-color:#000000"
       id="path1371-7"
       cx="24"
       cy="24"
       rx="16.501276"
       ry="16.5" />
    <ellipse
       style="display:inline;opacity:0.594356;fill:none;stroke:#b3a3ff;stroke-width:0.189526;stroke-linecap:round;stroke-linejoin:round;stroke-miterlimit:4;stroke-dasharray:none;stroke-dashoffset:0;stroke-opacity:1;stop-color:#000000"
       id="path1371-3"
       cx="24"
       cy="24"
       rx="19.5"
       ry="19.495289" />
    <path
       style="opacity:0.594356;fill:none;stroke:#b3a3ff;stroke-width:0.1;stroke-linecap:round;stroke-linejoin:round;stroke-miterlimit:4;stroke-dasharray:none;stroke-dashoffset:0;stroke-opacity:1;stop-color:#000000"
       d="M 0,0 C 48,48 48,48 48,48"
       id="path3612" />
    <path
       style="opacity:0.594356;fill:none;stroke:#b3a3ff;stroke-width:0.1;stroke-linecap:round;stroke-linejoin:round;stroke-miterlimit:4;stroke-dasharray:none;stroke-dashoffset:0;stroke-opacity:1;stop-color:#000000"
       d="M 48,0 C 0,48 0,48 0,48"
       id="path3614" />
  </g>
  <g
     inkscape:groupmode="layer"
     id="layer4"
     inkscape:label="helper_trim"
     style="display:none"
     sodipodi:insensitive="true"
     inkscape:highlight-color="#fcdecb">
    <path
       id="rect4286"
       style="opacity:1;fill:#ecf8e3;fill-opacity:1;stroke:none;stroke-width:0.2;stroke-linecap:round;stroke-linejoin:round;stroke-miterlimit:4;stroke-dasharray:none;stroke-dashoffset:0;stroke-opacity:1;stop-color:#000000"
       d="M 0,0 V 48 H 48 V 0 Z M 24,4.5047112 C 35.01747,4.505143 43.499568,12.98253 43.5,24 43.499568,35.017471 35.017471,43.494857 24,43.495289 12.98253,43.494857 4.5004319,35.01747 4.5,24 4.500432,12.98253 12.98253,4.5051431 24,4.5047112 Z"
       sodipodi:nodetypes="cccccccccc" />
  </g>
  <g
     inkscape:groupmode="layer"
     id="layer2"
     inkscape:label="workspace"
     style="display:inline" />
</svg>
