<svg id="Capa_1" enable-background="new 0 0 511.997 511.997" height="512" viewBox="0 0 511.997 511.997" width="512" xmlns="http://www.w3.org/2000/svg"><g><g><path d="m451.748 149.919c9.28-9.27 0 0 52.749-7.351v266.958c0 25.95-21.04 46.99-46.99 46.99h-299.288c0-28.68 8.543-39.675 19.222-43.985" fill="#9bd069"/><path d="m196.358 141.938 194.203-86.46h66.94c25.96 0 47 21.04 47 46.99v40.1c0 14.15-5.74 26.96-15.01 36.23-9.28 9.28-22.09 15.01-36.24 15.01-12.58 0-22.78 10.2-22.78 22.79v35.74c0 5.51-2.23 10.5-5.85 14.11-3.67 3.67-8.76 5.91-14.37 5.84-10.92-.14-19.69 9.06-19.69 19.98v13.21c0 32.36-26.24 58.59-58.59 58.59h-81.309c-8.75 0-16.67 3.55-22.41 9.28-5.73 5.74-9.28 13.67-9.28 22.42 0 33.55-27.2 60.75-60.759 60.75h-103.72c-25.95 0-46.99-21.04-46.99-46.99v-133.252" fill="#ffe07d"/><path d="m390.561 55.477v25.94c0 17.26-13.99 31.25-31.26 31.25h-47.88c-8.64 0-16.45 3.5-22.11 9.16-5.65 5.65-9.15 13.47-9.15 22.1 0 17.27 13.99 31.26 31.26 31.26h18.4c6.8 0 12.95 2.75 17.4 7.21 4.46 4.45 7.21 10.6 7.21 17.4 0 13.59-11.02 24.61-24.61 24.61h-49c-8.26 0-15.75 3.35-21.16 8.77-5.42 5.41-8.77 12.9-8.77 21.16 0 16.53-13.39 29.93-29.92 29.93h-24.61c-8.82 0-16.8 3.57-22.58 9.35s-9.35 13.76-9.35 22.57c0 11.75-4.76 22.39-12.46 30.1-7.71 7.7-18.35 12.46-30.1 12.46-23.51 0-42.57-19.05-42.57-42.56v-7.98c0-17.63-14.29-31.93-31.92-31.93h-39.877v-173.81c0-25.95 21.04-46.99 46.99-46.99z" fill="#e4936b"/><path d="m92.606 103.363h-27.934c-15.427 0-27.933 12.506-27.933 27.933 0 15.427 12.506 27.933 27.933 27.933 11.019 0 19.952 8.933 19.952 19.952v31.259c0 14.325 11.613 25.938 25.938 25.938 14.325 0 25.938-11.613 25.938-25.938 0-16.529 13.399-29.928 29.928-29.928h23.278c21.304 0 38.574-17.27 38.574-38.574 0-21.304-17.27-38.574-38.574-38.574h-97.1z" fill="#dd636e"/><path d="m444.432 425.261h-33.254c-12.121 0-21.948-9.826-21.948-21.948 0-12.121 9.826-21.948 21.948-21.948h33.254c12.121 0 21.948 9.826 21.948 21.948 0 12.122-9.827 21.948-21.948 21.948z" fill="#ffe07d"/></g><g><path d="m511.997 102.471c0-30.048-24.445-54.493-54.493-54.493h-403.011c-30.048 0-54.493 24.445-54.493 54.493v307.056c0 30.048 24.445 54.493 54.493 54.493h403.011c30.048 0 54.493-24.445 54.493-54.493zm-457.504-39.493h328.567v18.438c0 13.101-10.658 23.759-23.759 23.759h-47.886c-21.371 0-38.758 17.387-38.758 38.759s17.387 38.758 38.758 38.758h18.404c9.433 0 17.107 7.675 17.107 17.108s-7.675 17.108-17.107 17.108h-48.997c-20.639 0-37.429 16.791-37.429 37.429 0 12.367-10.062 22.428-22.429 22.428h-24.608c-21.738 0-39.423 17.686-39.423 39.424 0 19.335-15.73 35.065-35.065 35.065s-35.065-15.73-35.065-35.065v-7.981c0-21.738-17.685-39.424-39.423-39.424h-32.38v-166.313c0-21.777 17.717-39.493 39.493-39.493zm442.504 346.548c0 21.776-17.717 39.493-39.493 39.493h-256.67c15.612-12.518 25.635-31.731 25.635-53.251 0-6.462 2.518-12.543 7.079-17.112 4.579-4.571 10.656-7.088 17.111-7.088h66.31c4.143 0 7.5-3.358 7.5-7.5s-3.357-7.5-7.5-7.5h-66.31c-10.457 0-20.298 4.074-27.718 11.481-7.398 7.41-11.473 17.254-11.473 27.719 0 29.362-23.893 53.25-53.26 53.25l-103.715.002c-21.776 0-39.493-17.717-39.493-39.494v-125.743h32.381c13.467 0 24.423 10.957 24.423 24.424v7.981c0 27.606 22.459 50.065 50.065 50.065s50.065-22.459 50.065-50.065c0-13.467 10.956-24.424 24.423-24.424h24.608c20.639 0 37.429-16.79 37.429-37.428 0-12.367 10.062-22.429 22.429-22.429h48.997c17.704 0 32.107-14.403 32.107-32.108s-14.403-32.108-32.107-32.108h-18.404c-13.1 0-23.758-10.658-23.758-23.759s10.658-23.758 23.758-23.758h47.886c21.372 0 38.759-17.387 38.759-38.759v-18.437h59.443c21.776 0 39.493 17.717 39.493 39.493v40.218c-.031 11.635-4.576 22.572-12.811 30.806-8.263 8.263-19.249 12.813-30.937 12.813-16.696 0-30.28 13.588-30.28 30.29v35.74c0 3.33-1.295 6.455-3.653 8.807-2.392 2.392-5.567 3.711-8.961 3.644-7.16-.087-13.902 2.657-19.05 7.739-5.24 5.174-8.246 12.369-8.246 19.74v13.21c0 23.227-15.672 43.555-38.111 49.435-4.007 1.05-6.403 5.149-5.354 9.156.883 3.37 3.922 5.601 7.25 5.601.629 0 1.269-.08 1.906-.247 29.032-7.607 49.309-33.902 49.309-63.945v-13.21c0-3.387 1.38-6.691 3.785-9.066 2.234-2.206 5.131-3.416 8.174-3.416.05 0 .099 0 .147.001 7.481.087 14.482-2.761 19.75-8.029 5.193-5.18 8.054-12.077 8.054-19.421v-35.74c0-8.431 6.854-15.29 15.28-15.29 15.693 0 30.447-6.111 41.544-17.207.76-.76 1.491-1.54 2.203-2.333v227.759z"/><path d="m64.67 166.729c3.33 0 6.458 1.294 8.807 3.643 2.35 2.35 3.644 5.478 3.644 8.808v31.26c0 18.439 15.001 33.44 33.439 33.44 8.942 0 17.342-3.481 23.639-9.792 6.321-6.308 9.802-14.707 9.802-23.648 0-5.995 2.333-11.624 6.577-15.862 4.229-4.235 9.858-6.568 15.853-6.568h23.28c25.403 0 46.07-20.667 46.07-46.07 0-12.308-4.793-23.879-13.497-32.583-8.704-8.703-20.272-13.497-32.573-13.497h-24.24c-4.143 0-7.5 3.358-7.5 7.5s3.357 7.5 7.5 7.5h24.24c8.295 0 16.097 3.233 21.967 9.104s9.104 13.675 9.104 21.977c0 17.132-13.938 31.07-31.07 31.07h-23.28c-10.006 0-19.406 3.896-26.459 10.962-7.077 7.059-10.973 16.459-10.973 26.465 0 4.93-1.917 9.558-5.408 13.042-3.474 3.481-8.103 5.398-13.032 5.398-10.168 0-18.439-8.272-18.439-18.44v-31.26c0-7.335-2.854-14.229-8.037-19.414-5.183-5.182-12.077-8.036-19.413-8.036-5.45 0-10.582-2.127-14.441-5.979-3.861-3.869-5.988-9.001-5.988-14.452 0-11.271 9.165-20.44 20.43-20.44h70.8c4.143 0 7.5-3.358 7.5-7.5s-3.357-7.5-7.5-7.5h-70.8c-19.536 0-35.43 15.898-35.43 35.44 0 9.452 3.684 18.347 10.382 25.059 6.699 6.689 15.596 10.373 25.046 10.373z"/><path d="m444.432 373.866h-33.254c-16.237 0-29.447 13.21-29.447 29.448s13.21 29.447 29.447 29.447h33.254c16.238 0 29.448-13.21 29.448-29.447s-13.21-29.448-29.448-29.448zm0 43.895h-33.254c-7.966 0-14.447-6.481-14.447-14.447s6.481-14.448 14.447-14.448h33.254c7.967 0 14.448 6.481 14.448 14.448s-6.482 14.447-14.448 14.447z"/></g></g></svg>