<svg xmlns="http://www.w3.org/2000/svg" width="1em" height="1em" viewBox="0 0 56 56"><path fill="currentColor" fill-rule="evenodd" d="M43.882 22.666c1.508-.66 2.652-1.778 3.725-2.9c1.223-1.279 1.239-2.882 1.239-3.721c0-1.334-1.253-2.386-3.29-2.435c-1.079-.026-1.738.243-2.637.898c-.644.468-2.153 2-1.48 3.253c.035.065.092.144.173.237a.519.519 0 0 1 .008.668a.47.47 0 0 1-.651.073l-.106-.082c-1.33-1.016-2.054-1.394-2.054-2.899c0-2.832 3.737-5.553 7.346-5.466c3.605.087 6.412 2.69 6.412 5.725c0 1.66-1.058 4.015-2.788 5.825a11.509 11.509 0 0 1-3.921 2.684c.094.155.191.322.29.503c.98 1.786.852 2.003.977 4.234c.124 2.232-.536 6.222-.283 8.188c.254 1.965 1.523 2.184 1.802 3.6c.177.897.616 4.791 1.317 11.68a1.001 1.001 0 0 1-.996 1.104h-2.057a.998.998 0 0 1-.998-.998v-.497c0-.315.148-.612.4-.8l.318-.239a1 1 0 0 0 .383-.986c-.547-2.912-1.028-4.665-1.442-5.259c-.306-.44-1.688-1.157-3.47-2.547c-.319-.25-.893-.78-1.72-1.592a.5.5 0 0 0-.848.296c-.15 1.203-.338 2.217-.561 3.042c-.27.994-1.1 3.587-2.489 7.777a1 1 0 0 1-.95.686h-2.618a.895.895 0 0 1-.894-.894v-.06a1 1 0 0 1 .821-.985l1.123-.206c.806-2.944 1.157-5.1 1.055-6.469c-.072-.968-.726-2.094-1.385-4.054c-.137-.408-.33-1.24-.578-2.5a.5.5 0 0 0-.617-.387l-6.663 1.726a.5.5 0 0 0-.316.72l.157.296c.3.562.456 1.19.456 1.827v9.36c0 .311-.145.605-.392.795l-1.397 1.07a1.001 1.001 0 0 1-.61.207H22.67a1.001 1.001 0 0 1-1-1.001v-.51c0-.363.195-.698.512-.875l.72-.402a1 1 0 0 0 .51-.958c-.114-1.351-.254-2.379-.422-3.083c-.172-.726-.59-2.022-1.253-3.886a.5.5 0 0 0-.799-.21l-.195.168c-.489.423-1.086.7-1.724.803l-6.252 1a.5.5 0 0 0-.291.83l.665.732c.168.184.26.424.26.673v.654a1.001 1.001 0 0 1-1.03 1l-.82-.024a1.001 1.001 0 0 1-.767-.394L9.75 46.327a1.001 1.001 0 0 1-.205-.607v-1.988c0-.347.18-.67.475-.852c4.271-2.64 6.587-4.099 6.948-4.38c.374-.29.53-.775.468-1.454c-.696-2.067-1.811-2.799-2.312-4.023c-.5-1.223-1.43-5.03-1.89-6.492c-.925-2.94-1.737-4.495-1.956-4.96c-.492-1.044-1.36-1.192-2.277-1.552c-.917-.361-2.66-.306-3.794-1.301c-1.133-.996-1.029-2.036-1.293-3.168v-1.385c0-.553.449-1.001 1.002-1.001h2.716c.367 0 .704-.2.88-.523c.31-.569.805-1.113 1.486-1.631a8.629 8.629 0 0 1 3.039-1.469c-.25-3.114-.25-4.873 0-5.277c.25-.404.945.228 2.087 1.896c.163-1.964.481-2.684.955-2.16c.442.49 1.205 2.27 2.288 5.34c.142.4.347.778.607 1.115c.455.588.865 1.292 1.232 2.11c.697 1.556 1.511 5.62 2.952 7.619c1.44 1.999 2.281 2.163 4.361 2.533c1.382.246 6.147-.54 10.05-.692c3.006-.118 5.424.388 5.86.5c.157.041.307.086.453.14"/></svg>