<?xml version="1.0" encoding="UTF-8" standalone="no"?>
<svg
   id="Layer_1"
   enable-background="new 0 0 479.994 479.994"
   height="512"
   viewBox="0 0 479.994 479.994"
   width="512"
   version="1.1"
   sodipodi:docname="hillslope.svg"
   inkscape:version="1.3.2 (091e20ef0f, 2023-11-25)"
   xmlns:inkscape="http://www.inkscape.org/namespaces/inkscape"
   xmlns:sodipodi="http://sodipodi.sourceforge.net/DTD/sodipodi-0.dtd"
   xmlns="http://www.w3.org/2000/svg"
   xmlns:svg="http://www.w3.org/2000/svg">
  <defs
     id="defs8" />
  <sodipodi:namedview
     id="namedview8"
     pagecolor="#ffffff"
     bordercolor="#000000"
     borderopacity="0.25"
     inkscape:showpageshadow="2"
     inkscape:pageopacity="0.0"
     inkscape:pagecheckerboard="0"
     inkscape:deskcolor="#d1d1d1"
     inkscape:zoom="1.1367188"
     inkscape:cx="220.37112"
     inkscape:cy="333.41579"
     inkscape:window-width="2560"
     inkscape:window-height="1375"
     inkscape:window-x="2240"
     inkscape:window-y="0"
     inkscape:window-maximized="1"
     inkscape:current-layer="Layer_1" />
  <path
     d="m 451.19421,229.40195 c -1.41721,-4.83386 -6.10866,-7.27326 -10.18435,-5.28351 -23.15133,11.33031 -47.584,8.98646 -67.85008,-4.19309 -2.88329,-1.87734 -6.43119,-1.39395 -8.92352,1.10167 -15.2394,15.30645 -39.36126,15.4627 -52.99382,-2.63052 -2.44346,-3.2488 -6.54849,-3.99074 -9.74453,-1.77616 -27.08627,18.74635 -63.55154,15.01642 -85.57007,-10.85931 -3.02012,-3.54107 -8.02433,-3.36121 -10.96626,0.2698 -34.62875,42.81894 -71.07545,84.03034 -108.92957,123.17331 -5.219236,5.38468 -1.925448,15.32219 5.0824,15.32219 h 92.71475 c 10.35051,0 10.35051,17.98643 0,17.98643 -173.887557,0 -144.563071,-0.0978 -161.45424,0.23607 C 17.391605,363.04448 5.369769,378.10474 6.7967512,395.65275 8.057578,411.22226 19.795974,422.90219 33.3914,422.90219 h 416.27809 c 14.65784,0 26.44901,-13.80458 26.14505,-30.65561 -0.98716,-55.8816 -9.24607,-110.49289 -24.62033,-162.84463 z M 238.19267,362.51276 h -6.55825 c -10.3505,0 -10.3505,-17.98643 0,-17.98643 h 6.55825 c 10.35051,0 10.35051,17.98643 0,17.98643 z"
     id="path1"
     style="stroke-width:1.0482" />
  <path
     d="m 237.35115,109.59547 c 7.25512,-7.03607 17.25769,4.37857 10.87927,13.06826 -47.28589,64.70281 -99.88485,127.54514 -155.257625,185.45695 -3.36025,0.45077 -5.784164,0.77565 -9.144414,1.22756 -17.380839,-10.77386 -27.942463,-30.43078 -27.888707,-52.53948 0,-26.59855 14.228772,-53.58943 34.941518,-66.22378 15.902058,-9.70142 33.289738,-10.00494 49.621848,-1.03421 10.35441,-13.41675 26.75787,-16.84317 39.76002,-7.80162 59.52471,-75.66778 55.20173,-70.32469 57.08809,-72.15368 z"
     id="path4"
     style="stroke-width:1.0482" />
  <path
     d="m 440.08818,195.32778 c 1.61855,4.50223 -0.16127,9.68232 -4.03073,11.66421 -22.82879,11.69566 -47.42859,6.7033 -64.76447,-10.3928 -3.97014,-3.8963 -10.03188,-2.31574 -12.18799,3.06894 -4.31028,10.73565 -16.58624,17.00842 -26.81946,13.68093 -7.46722,-2.42817 -12.90147,-9.7464 -13.51722,-18.20002 -0.57862,-7.93426 -9.20893,-11.17182 -13.7225,-5.11489 -19.46559,26.08706 -58.69588,27.63839 -79.15353,1.66262 -2.68878,-3.41405 -2.67119,-8.61662 0.004,-12.04416 21.49857,-27.54509 43.73407,-57.75892 64.99709,-88.54494 26.44609,-38.280741 77.57212,-36.455118 101.76534,3.912048 18.8606,31.469512 34.87309,65.375042 47.42956,100.308062 z"
     id="path8"
     style="stroke-width:1.0482" />
</svg>
