<svg width="56" height="56" version="1.1" viewBox="0 0 56 56" xmlns="http://www.w3.org/2000/svg">
 <path d="m0.6249 27.824c0 1.125 0.8906 1.8047 1.9922 1.8047 0.6797 0 1.2187-0.3281 1.6875-0.7969l22.875-20.836c0.2578-0.2578 0.5391-0.3516 0.8437-0.3516 0.2813 0 0.5391 0.0938 0.8203 0.3516l22.852 20.836c0.492 0.4688 1.031 0.7969 1.6872 0.7969 1.1016 0 1.9925-0.6797 1.9925-1.8047 0-0.7031-0.2578-1.1484-0.7032-1.5468l-8.1096-7.3829v-13.852c0-1.0313-0.6562-1.6875-1.6872-1.6875h-3.0705c-1.0078 0-1.711 0.6562-1.711 1.6875v7.9687l-9.2812-8.4843c-0.8203-0.7735-1.8281-1.1485-2.8125-1.1485s-1.9687 0.375-2.8125 1.1485l-23.859 21.75c-0.4218 0.3984-0.7031 0.8437-0.7031 1.5468zm6.7031 19.664c0 3.2578 1.9688 5.1562 5.2735 5.1562h30.82c3.3048 0 5.2503-1.8984 5.2503-5.1562v-17.156l-19.898-17.93c-0.2579-0.2344-0.5391-0.3515-0.8203-0.3515-0.2579 0-0.5157 0.1171-0.7969 0.375l-19.828 18.023z"/>
</svg>
