<svg width="512" height="512" enable-background="new 0 0 512.002 512.002" version="1.1" viewBox="0 0 512 512" xmlns="http://www.w3.org/2000/svg">
 <g>
  <path d="m245.07 29.846c-19.832 6.6603-30.791 28.981-24.433 49.754 0.67442 2.2004 2.2768 3.9516 4.3454 4.7492 1.5139 0.5837 3.1528 0.60864 4.6582 0.10308 0.4218-0.14166 0.8277-0.33731 1.222-0.56219 7.0607 12.183 21.423 18.212 34.935 13.674 15.814-5.3109 24.553-23.108 19.483-39.674-0.78222-2.5559-1.8858-4.9946-3.2524-7.2555 1.6179-1.2417 2.6792-3.137 2.8943-5.2444 0.23447-2.2998-0.55652-4.5829-2.145-6.1896-10.074-10.198-24.522-13.782-37.707-9.3544zm-9.4295 85.753c-3.2878 1.0059-6.3699 2.5936-9.1222 4.6573l-74.676 25.08c-15.814 5.3109-24.553 23.108-19.483 39.674l19.534 63.826-140.72 119.92c-3.0664 2.6145-3.5301 7.3392-1.0333 10.551 1.9153 2.4652 5.0165 3.3239 7.7409 2.4089 0.82631-0.27751 1.6172-0.71807 2.3313-1.3265l143.53-122.32c15.081-5.8273 24.107-22.323 21.111-39.011l-5.9928-33.374c-0.84605-5.4903-3.0075-6.648 13.188-12.305l18.341-6.1596-10.613 71.975c-0.87345 5.9179-0.0633 14.603 0.62542 19.189l15.437 83.374-34.861 73.988c-1.5569 3.3047 0.61164 10.646 3.4804 12.778l31.204 23.192c1.9126 1.4212 4.2597 1.7146 6.3339 1.0232l6e-3 -2e-3 252.7-84.867c11.553-3.88 19.771-15.583 25.321-26.885l2.6514-5.3987c1.8092-3.6824 0.42532-8.2042-3.0909-10.099-3.5162-1.895-7.8328-0.44525-9.6408 3.2378l-2.6513 5.3987c-3.801 7.738-10.251 13.462-18.163 16.119l-104.18 34.99 13.722-204.26c0.27813-4.1322-2.6943-7.7168-6.6387-8.0072-3.9462-0.29294-7.3684 2.823-7.6456 6.955l-0.80782 12.03-57.768-11.478-23.761-42.587c-7.5782-13.582-21.045-22.35-36.049-23.456-3.5737-0.26316-7.0673 0.16031-10.355 1.1662zm29.659 92.635 9.2091 11.109c6.9312 8.3594 16.965 13.318 27.532 13.606l58.671 1.6001-10.452 155.62-10.429 3.5026-24.876-81.281c-2.5026-8.177-6.8531-15.745-12.581-21.885l-37.761-40.475c-3.4412-4.6341-5.6953-9.6141-2.9645-22.308zm1.0356 123.98 30.121 76.026-50.34 16.906-11.216-12.057 27.345-55.677c0.35203-0.7168 0.59044-1.4881 0.70847-2.2849zm-151.93 137.17c-3.7652 1.2645-5.8391 5.4874-4.632 9.4317 1.2071 3.9442 7.0063 10.398 10.771 9.1333l65.584-22.026c3.7652-1.2645 4.0712-9.7685 2.8641-13.713-1.2071-3.9442-5.2384-6.1168-9.0036-4.8522z" stroke-width=".97704"/>
 </g>
</svg>
