<?xml version="1.0" encoding="UTF-8" standalone="no"?>
<svg
   width="56"
   height="56"
   viewBox="0 0 56 56"
   version="1.1"
   id="svg1"
   sodipodi:docname="huts.svg"
   inkscape:version="1.3.2 (091e20ef0f, 2023-11-25)"
   xmlns:inkscape="http://www.inkscape.org/namespaces/inkscape"
   xmlns:sodipodi="http://sodipodi.sourceforge.net/DTD/sodipodi-0.dtd"
   xmlns="http://www.w3.org/2000/svg"
   xmlns:svg="http://www.w3.org/2000/svg">
  <defs
     id="defs1" />
  <sodipodi:namedview
     id="namedview1"
     pagecolor="#ffffff"
     bordercolor="#000000"
     borderopacity="0.25"
     inkscape:showpageshadow="2"
     inkscape:pageopacity="0.0"
     inkscape:pagecheckerboard="0"
     inkscape:deskcolor="#d1d1d1"
     inkscape:zoom="14.69772"
     inkscape:cx="29.630447"
     inkscape:cy="24.96986"
     inkscape:window-width="2560"
     inkscape:window-height="1375"
     inkscape:window-x="2240"
     inkscape:window-y="0"
     inkscape:window-maximized="1"
     inkscape:current-layer="svg1" />
  <path
     d="m 0.6249,27.8242 c 0,1.125 0.8906,1.8047 1.9922,1.8047 0.6797,0 1.2187,-0.3281 1.6875,-0.7969 L 27.1796,7.9961 c 0.2578,-0.2578 0.5391,-0.3516 0.8437,-0.3516 0.2813,0 0.5391,0.0938 0.8203,0.3516 L 51.6954,28.832 c 0.492,0.4688 1.031,0.7969 1.6872,0.7969 1.1016,0 1.9925,-0.6797 1.9925,-1.8047 0,-0.7031 -0.2578,-1.1484 -0.7032,-1.5468 L 46.5623,18.8945 V 5.043 c 0,-1.0313 -0.6562,-1.6875 -1.6872,-1.6875 h -3.0705 c -1.0078,0 -1.711,0.6562 -1.711,1.6875 v 7.9687 L 30.8124,4.5274 C 29.9921,3.7539 28.9843,3.3789 27.9999,3.3789 c -0.9844,0 -1.9687,0.375 -2.8125,1.1485 L 1.328,26.2774 C 0.9062,26.6758 0.6249,27.1211 0.6249,27.8242 Z M 7.328,47.4883 c 0,3.2578 1.9688,5.1562 5.2735,5.1562 h 30.8201 c 3.3048,0 5.2503,-1.8984 5.2503,-5.1562 V 30.332 L 28.7734,12.4023 c -0.2579,-0.2344 -0.5391,-0.3515 -0.8203,-0.3515 -0.2579,0 -0.5157,0.1171 -0.7969,0.375 L 7.328,30.4492 Z"
     id="path1"
     sodipodi:nodetypes="ssccsccssccssssccsccsssssccsccs" />
</svg>
