<?xml version="1.0" encoding="UTF-8" standalone="no"?>
<svg
   id="Layer_1"
   enable-background="new 0 0 512 512"
   height="512"
   viewBox="0 0 512 512"
   width="512"
   version="1.1"
   sodipodi:docname="mtb.svg"
   inkscape:version="1.3.2 (091e20ef0f, 2023-11-25)"
   xmlns:inkscape="http://www.inkscape.org/namespaces/inkscape"
   xmlns:sodipodi="http://sodipodi.sourceforge.net/DTD/sodipodi-0.dtd"
   xmlns="http://www.w3.org/2000/svg"
   xmlns:svg="http://www.w3.org/2000/svg">
  <defs
     id="defs5" />
  <sodipodi:namedview
     id="namedview5"
     pagecolor="#ffffff"
     bordercolor="#000000"
     borderopacity="0.25"
     inkscape:showpageshadow="2"
     inkscape:pageopacity="0.0"
     inkscape:pagecheckerboard="0"
     inkscape:deskcolor="#d1d1d1"
     inkscape:zoom="1.1367188"
     inkscape:cx="253.80069"
     inkscape:cy="332.53608"
     inkscape:window-width="2560"
     inkscape:window-height="1375"
     inkscape:window-x="2240"
     inkscape:window-y="0"
     inkscape:window-maximized="1"
     inkscape:current-layer="Layer_1" />
  <g
     id="Layer_2_00000007405547900734707610000009233547936779136646_"
     transform="rotate(-22.23363,186.32649,345.92562)">
    <g
       id="cycling">
      <g
         id="icon">
        <path
           d="m 285,197.3 -49,40.1 c 11.7,7.6 22,14.5 32.5,21.2 9.2,5.9 13.5,14 13.4,25 -0.2,32.7 0,65.4 -0.1,98.1 -0.1,16.5 -10.1,27.5 -24.6,27.5 -14.5,0 -24.6,-10.9 -24.6,-27.5 -0.1,-24.9 -0.5,-49.8 0.2,-74.6 0.2,-8.9 -2.2,-14.4 -10.1,-18.8 -12.4,-6.9 -24.3,-14.8 -36.1,-22.6 -29.8,-19.7 -31.2,-54.7 -3.2,-76.6 19.6,-15.3 39.3,-30.5 59.1,-45.6 19.8,-15.2 34.9,-15 54.9,0.4 11.8,9.1 24,17.8 35.3,27.5 7,6 14.3,8.2 23.3,7.7 9.6,-0.5 19.2,-0.3 28.8,0 14.8,0.5 25.2,11 25.2,24.8 0,14.7 -9.5,24.2 -24.9,24.4 -17,0.3 -34.1,0.5 -51.2,-0.2 -5.6,-0.4 -10.9,-2.2 -15.5,-5.4 -11.3,-7.6 -21.7,-16.3 -33.4,-25.4 z"
           id="path1" />
        <path
           d="m 218.2,84 c 8.8,6.9 15.8,15.6 18.5,24.7 1.4,4.8 -0.9,11.3 -4.8,14.3 -26.2,20.5 -53,40.3 -79.8,60 -6.8,5 -13.4,3.7 -18.7,-2.9 -10.9,-13.5 -22,-26.9 -32.6,-40.7 -6.7,-8.7 -5.8,-13.9 3.1,-20.7 16.6,-12.8 33,-25.9 50.4,-37.5 1.4,-0.9 2.9,-1.8 4.4,-2.6 19.2,-10.1 42.5,-8 59.5,5.4 z"
           id="path2" />
        <path
           d="m 409.6,255.8 c -56.6,0 -102.4,45.8 -102.4,102.4 0,56.6 45.8,102.4 102.4,102.4 56.6,0 102.4,-45.8 102.4,-102.4 0,-56.5 -45.8,-102.4 -102.4,-102.4 z m 0,162.1 c -33,0 -59.7,-26.7 -59.8,-59.7 0,-33 26.7,-59.7 59.7,-59.7 33,0 59.7,26.7 59.8,59.7 0,33 -26.7,59.7 -59.7,59.7 z"
           id="path3" />
        <path
           d="M 102.4,255.8 C 45.8,255.8 0,301.7 0,358.2 c 0,56.5 45.8,102.4 102.4,102.4 56.6,0 102.4,-45.8 102.4,-102.4 0,-56.5 -45.8,-102.4 -102.4,-102.4 z m 0,162.1 c -33,0 -59.7,-26.7 -59.8,-59.7 0,-33 26.7,-59.7 59.7,-59.7 33,0 59.7,26.7 59.8,59.7 0,33 -26.7,59.7 -59.7,59.7 z"
           id="path4" />
        <path
           d="m 358.5,89.8 c -0.2,20.2 -17.4,37.5 -37.3,37.6 -20.2,0.1 -37.8,-17.9 -37.5,-38.4 0.2,-20.2 17.4,-37.5 37.3,-37.6 20.1,-0.1 37.7,17.9 37.5,38.4 z"
           id="path5" />
      </g>
    </g>
  </g>
</svg>
