<?xml version="1.0" encoding="UTF-8" standalone="no"?>
<svg
   id="Capa_1"
   enable-background="new 0 0 512.002 512.002"
   height="512"
   viewBox="0 0 512.002 512.002"
   width="512"
   version="1.1"
   sodipodi:docname="skitouren.svg"
   inkscape:version="1.3.2 (091e20ef0f, 2023-11-25)"
   xmlns:inkscape="http://www.inkscape.org/namespaces/inkscape"
   xmlns:sodipodi="http://sodipodi.sourceforge.net/DTD/sodipodi-0.dtd"
   xmlns="http://www.w3.org/2000/svg"
   xmlns:svg="http://www.w3.org/2000/svg">
  <defs
     id="defs12" />
  <sodipodi:namedview
     id="namedview12"
     pagecolor="#ffffff"
     bordercolor="#000000"
     borderopacity="0.25"
     inkscape:showpageshadow="2"
     inkscape:pageopacity="0.0"
     inkscape:pagecheckerboard="0"
     inkscape:deskcolor="#d1d1d1"
     inkscape:zoom="1.6075631"
     inkscape:cx="186.92889"
     inkscape:cy="271.84002"
     inkscape:window-width="2560"
     inkscape:window-height="1375"
     inkscape:window-x="2240"
     inkscape:window-y="0"
     inkscape:window-maximized="1"
     inkscape:current-layer="g12" />
  <g
     id="g12"
     style="fill:#000000">
    <path
       id="path1"
       style="fill:#000000;stroke-width:0.977043"
       d="m 245.06737,29.846072 c -19.83153,6.660321 -30.79099,28.980523 -24.43326,49.754003 0.67442,2.200356 2.27682,3.951644 4.3454,4.749164 1.51393,0.583695 3.15284,0.608644 4.65821,0.103075 0.4218,-0.141657 0.8277,-0.337309 1.22201,-0.562192 7.0607,12.182526 21.42276,18.211698 34.93468,13.673786 15.8136,-5.31091 24.55268,-23.108431 19.48281,-39.67389 -0.78222,-2.555857 -1.88579,-4.994612 -3.2524,-7.255493 1.6179,-1.241702 2.67921,-3.136983 2.89434,-5.244396 0.23447,-2.29978 -0.55652,-4.582925 -2.14496,-6.189631 -10.07424,-10.198009 -24.52216,-13.782427 -37.70683,-9.354426 z m -9.42946,85.752558 c -3.28777,1.00589 -6.36994,2.59359 -9.12218,4.65731 l -74.67628,25.07965 c -15.8136,5.31092 -24.55267,23.10843 -19.4828,39.67389 l 19.53389,63.82568 -140.715386,119.92095 c -3.0663747,2.61447 -3.5300578,7.33918 -1.033335,10.55103 1.915324,2.46515 5.016508,3.32391 7.74089,2.40894 0.826314,-0.27751 1.617246,-0.71807 2.331265,-1.32647 L 163.74293,258.06955 c 15.08114,-5.82732 24.10721,-22.32312 21.11119,-39.01066 l -5.99283,-33.37419 c -0.84605,-5.49031 -3.00747,-6.64804 13.188,-12.30516 l 18.34061,-6.1596 -10.61314,71.97524 c -0.87345,5.91787 -0.0633,14.60316 0.62542,19.18884 l 15.43704,83.37394 -34.86122,73.98824 c -1.55693,3.3047 0.61164,10.64641 3.48039,12.77771 l 31.20446,23.19231 c 1.91259,1.42117 4.25972,1.7146 6.33389,1.02321 l 0.006,-0.002 252.69737,-84.86712 c 11.55294,-3.87999 19.77069,-15.58328 25.32104,-26.8849 l 2.65135,-5.39866 c 1.80922,-3.68242 0.42532,-8.20422 -3.09087,-10.09918 -3.51619,-1.89495 -7.83278,-0.44525 -9.6408,3.23781 l -2.65134,5.39867 c -3.80099,7.73802 -10.25148,13.4623 -18.16282,16.11929 l -104.18473,34.9899 13.72194,-204.25811 c 0.27813,-4.13223 -2.69433,-7.71684 -6.63871,-8.00725 -3.94617,-0.29294 -7.36836,2.82302 -7.64558,6.95495 l -0.80782,12.02999 -57.76788,-11.47758 -23.76133,-42.58658 c -7.57816,-13.58183 -21.04521,-22.34992 -36.049,-23.45637 -3.57366,-0.26316 -7.06733,0.16031 -10.3551,1.16617 z m 29.65891,92.63502 9.2091,11.10867 c 6.93119,8.35942 16.9654,13.31792 27.53247,13.60622 l 58.67059,1.60008 -10.45193,155.61851 -10.42911,3.50256 -24.87601,-81.28071 c -2.50259,-8.17703 -6.85308,-15.74543 -12.58145,-21.88452 l -37.76077,-40.47543 c -3.4412,-4.6341 -5.69528,-9.61408 -2.96446,-22.30848 z m 1.0356,123.97689 30.12078,76.02633 -50.33991,16.90641 -11.21645,-12.05691 27.3451,-55.67702 c 0.35203,-0.7168 0.59044,-1.48809 0.70847,-2.28488 z M 114.40179,469.37791 c -3.76522,1.26453 -5.83914,5.48745 -4.632,9.43169 1.20713,3.94425 7.00626,10.3978 10.77149,9.13327 l 65.5841,-22.02608 c 3.76523,-1.26454 4.07125,-9.76848 2.86412,-13.71273 -1.20714,-3.94424 -5.23838,-6.11677 -9.00361,-4.85223 z"
       sodipodi:nodetypes="scsscsscccsccsscccsccccccccccccscsscsccsccccccccsccccccscccccscccccssssssss" />
  </g>
</svg>
