<?xml version="1.0" encoding="UTF-8" standalone="no"?>
<svg
   id="Capa_1"
   enable-background="new 0 0 512.002 512.002"
   height="512"
   viewBox="0 0 512.002 512.002"
   width="512"
   version="1.1"
   sodipodi:docname="skitouren.svg"
   inkscape:version="1.3.2 (091e20ef0f, 2023-11-25)"
   xmlns:inkscape="http://www.inkscape.org/namespaces/inkscape"
   xmlns:sodipodi="http://sodipodi.sourceforge.net/DTD/sodipodi-0.dtd"
   xmlns="http://www.w3.org/2000/svg"
   xmlns:svg="http://www.w3.org/2000/svg">
  <defs
     id="defs12" />
  <sodipodi:namedview
     id="namedview12"
     pagecolor="#ffffff"
     bordercolor="#000000"
     borderopacity="0.25"
     inkscape:showpageshadow="2"
     inkscape:pageopacity="0.0"
     inkscape:pagecheckerboard="0"
     inkscape:deskcolor="#d1d1d1"
     inkscape:zoom="1.1367188"
     inkscape:cx="98.96907"
     inkscape:cy="221.69072"
     inkscape:window-width="2560"
     inkscape:window-height="1375"
     inkscape:window-x="2240"
     inkscape:window-y="0"
     inkscape:window-maximized="1"
     inkscape:current-layer="g12" />
  <g
     id="g12"
     style="fill:#000000">
    <path
       id="path1"
       style="fill:#000000"
       d="m 344.17713,60.121329 c -21.81598,0 -39.56266,17.749629 -39.56266,39.564607 0.001,2.310994 1.06478,4.491134 2.88478,5.912134 1.332,1.04 2.95925,1.5879 4.61525,1.5879 0.464,0 0.92863,-0.0565 1.39063,-0.14454 3.324,13.85899 15.80996,24.19346 30.67395,24.19346 17.39598,0 31.547,-14.15297 31.547,-31.548954 0,-2.683997 -0.3563,-5.359252 -1.0293,-7.94925 1.99299,-0.664999 3.6303,-2.130377 4.48829,-4.068375 0.936,-2.114998 0.844,-4.542106 -0.25,-6.580104 C 371.99908,68.15522 358.68111,60.121329 344.17713,60.121329 Z m -35.58608,78.642881 c -3.58675,-0.0936 -7.14603,0.43259 -10.52153,1.51759 h -82.14875 c -17.39599,0 -31.547,14.15297 -31.547,31.54895 V 238.8564 L 7.3942156,308.04973 c -3.8569961,1.50899 -5.7619682,5.85984 -4.2519697,9.71683 1.1579988,2.96 3.9893584,4.76955 6.9863551,4.76955 0.908999,0 1.832481,-0.16658 2.73048,-0.51758 L 193.37771,251.44044 c 16.82298,-0.726 30.86288,-13.54762 32.96888,-30.39661 l 4.21095,-33.6974 c 0.83221,-5.49877 -0.97044,-7.29247 16.91218,-7.50002 h 20.17586 l -32.56068,65.14478 c -2.67799,5.356 -4.52139,13.88573 -5.23439,18.47273 l -10.05473,84.33041 -57.3635,59.30687 c -2.562,2.649 -2.81843,6.76593 -0.60743,9.71293 l 24.04697,32.06458 c 1.474,1.96499 3.72588,3.00001 6.00588,3.00001 h 0.006 277.98351 c 12.70898,0 24.65767,-4.94861 33.64466,-13.9356 l 4.29299,-4.29299 c 2.92899,-2.928 2.92899,-7.67651 0,-10.60551 -2.929,-2.929 -7.67752,-2.929 -10.60551,0 l -4.29299,4.29299 c -6.15399,6.15299 -14.33616,9.54105 -23.03915,9.54105 H 355.25725 l 76.04717,-190.11793 c 1.539,-3.846 -0.33176,-8.21009 -4.17775,-9.74809 -3.847,-1.54099 -8.21204,0.33176 -9.75004,4.17776 l -4.47853,11.1973 -54.12131,-29.40441 -10.70121,-48.15253 c -3.413,-15.35698 -14.16996,-28.01337 -28.79894,-33.86537 -3.4845,-1.39349 -7.09884,-2.10755 -10.68559,-2.20118 z m 1.30469,97.69765 5.79495,13.52349 c 4.36199,10.17699 12.85764,18.10781 23.31063,21.76181 l 58.03734,20.28718 -57.93577,144.84627 h -11.4727 v -85.3558 c 0,-8.58699 -2.02917,-17.18539 -5.86917,-24.86338 l -25.31064,-50.61934 c -2.01794,-5.51339 -2.74609,-10.9765 3.85353,-22.19149 z m -36.81655,118.38914 6.83597,82.02961 h -55.37717 l -7.50785,-15.06842 44.27557,-44.27361 c 0.57,-0.57 1.0433,-1.22822 1.4043,-1.94922 z M 79.646795,436.88061 c -4.141995,0 -7.500029,3.35804 -7.500029,7.50003 0,4.142 3.358034,7.50003 7.500029,7.50003 h 72.146765 c 4.142,0 7.50003,-3.35803 7.50003,-7.50003 0,-4.14199 -3.35803,-7.50003 -7.50003,-7.50003 z"
       sodipodi:nodetypes="scsscsscccsscsscccsccccccccccccscsscsccsccccccccsccccccscccccccccccsssssss" />
  </g>
</svg>
