<?xml version="1.0" encoding="UTF-8" standalone="no"?>
<svg
   width="511pt"
   height="511pt"
   version="1.1"
   viewBox="0 -21 511.99 511"
   id="svg26"
   sodipodi:docname="basemap-switch-close.svg"
   inkscape:version="1.4.3 (0d15f75042, 2025-12-25)"
   xmlns:inkscape="http://www.inkscape.org/namespaces/inkscape"
   xmlns:sodipodi="http://sodipodi.sourceforge.net/DTD/sodipodi-0.dtd"
   xmlns="http://www.w3.org/2000/svg"
   xmlns:svg="http://www.w3.org/2000/svg">
  <sodipodi:namedview
     id="namedview26"
     pagecolor="#ffffff"
     bordercolor="#000000"
     borderopacity="0.25"
     inkscape:showpageshadow="2"
     inkscape:pageopacity="0.0"
     inkscape:pagecheckerboard="0"
     inkscape:deskcolor="#d1d1d1"
     inkscape:document-units="pt"
     inkscape:zoom="1.2038804"
     inkscape:cx="375.03725"
     inkscape:cy="374.62192"
     inkscape:window-width="2560"
     inkscape:window-height="1375"
     inkscape:window-x="2240"
     inkscape:window-y="0"
     inkscape:window-maximized="1"
     inkscape:current-layer="svg26" />
  <defs
     id="defs1">
    <clipPath
       id="a">
      <path
         d="m-411.01-88.112c-18.834 1.0431-35.611 12.284-40.721 29.059l-60.141 196.82c-0.32031 1.032-0.64157 2.0644-0.74704 3.1348-3.9883 18.53 7.6372 37.197 27.586 44.477 1.707 0.61221 3.6255 1.2597 5.5904 1.739l304.53 74.643c24.363 5.9611 49.492-6.4584 55.98-27.682l45.134-120.71-289.21 1.3365c-26.472 0.12234-48-19.279-48-42.987z"
         fill="#8fd6b7"
         stroke-width=".94634"
         id="path1" />
    </clipPath>
  </defs>
  <g
     transform="rotate(-12.167116,91.067196,60.741228)"
     id="g10">
    <path
       d="m 434.00052,246.35464 -60.137,219.8 c -6.4883,23.699 -31.617,37.566 -55.98,30.91 l -304.530003,-83.348 c -1.9648,-0.53516 -3.8828005,-1.2578 -5.5898005,-1.9414 -19.9489995,-8.1289 -31.5739995,-28.973 -27.5859995,-49.664 0.10547,-1.1953 0.42578,-2.3477 0.74609,-3.5 l 60.141,-219.78 c 6.4648,-23.699 31.594,-37.586 55.957,-30.91 l 304.530003,83.328 c 24.387,6.6562 38.934,31.402 32.449,55.105 z"
       fill="#8fd6b7"
       id="path2"
       style="fill:#3ca57c;fill-opacity:1" />
    <path
       d="m 343.44052,505.87464 c -4.0312,0 -8.1484,-0.51171 -12.227,-1.5781 L 1.3135165,415.95254 c -25.4489995,-7.0195 -40.6169995,-33.344 -33.9609995,-58.773 l 36.2659995,-139.07 c 2.2188,-8.5352 10.9450005,-13.719 19.5200005,-11.434 8.5352,2.2188 13.676,10.965 11.438,19.52 l -36.2700005,139.09 c -2.2383,8.5742 2.8594,17.426 11.395,19.773 l 329.7100035,88.301 c 8.4688,2.2383 17.215,-2.7969 19.434,-11.223 l 11.262,-45.441 c 2.1367,-8.5742 10.797,-13.781 19.371,-11.688 8.5781,2.1328 13.805,10.793 11.691,19.367 l -11.305,45.656 c -5.6992,21.609 -25.152,35.84 -46.422,35.84 z"
       id="path10" />
  </g>
  <path
     d="m 124.36887,311.73059 c 15.787,-9.8711 23.937,-20.136 32.327,-35.907 11.831,-22.24 57.881,-23.334 73.94,-39.785 24.18,-25.116 20.027,-44.204 55.277,-56.17 24.347,-7.5453 32.246,20.966 46.125,18.507 29.175,-5.168 5.2605,-57.26 31.025,-64.97 25.765,-7.7104 21.068,13.513 42.571,25.106 21.504,11.593 50.006,21.444 68.142,19.471 0.50536,-35.873 -15.04,-113.410005 -15.04,-113.410005 l -371.850001,-1.255 -10.181,292.050005 z"
     fill="#b9db94"
     stroke="#346751"
     stroke-linecap="round"
     stroke-linejoin="round"
     stroke-opacity="0.89584"
     stroke-width="0.075145"
     id="path11"
     style="fill:#547a2a;fill-opacity:1" />
  <path
     d="m 438.14587,373.28509 h -330.67 c -26.473003,0 -48.000003,-21.527 -48.000003,-48 V 79.945085 c 0,-26.473 21.527,-48 48.000003,-48 h 330.67 c 26.473,0 48,21.527 48,48 V 325.28509 c 0,26.473 -21.527,48 -48,48 z m -330.67,-309.340005 c -8.832003,0 -16.000003,7.168 -16.000003,16 V 325.28509 c 0,8.832 7.168,16 16.000003,16 h 330.67 c 8.832,0 16,-7.168 16,-16 V 79.945085 c 0,-8.832 -7.168,-16 -16,-16 z"
     id="path26" />
</svg>
