<svg clip-rule="evenodd" fill-rule="evenodd" height="512" stroke-linejoin="round" stroke-miterlimit="2" viewBox="0 0 48 48" width="512" xmlns="http://www.w3.org/2000/svg"><g transform="translate(0 -576)"><g id="FLAT-LINE" transform="scale(1.5)"><g transform="matrix(.754 0 0 .754 -2.053 -49.493)"><path d="m12.683 600h22.508l6.719 3.073c.359.164.59.527.59.927s-.231.763-.59.927c-4.418 2.021-14.734 6.739-17.358 7.939-.391.179-.839.179-1.231 0-2.623-1.2-12.939-5.918-17.358-7.939-.359-.164-.589-.527-.589-.927s.23-.763.589-.927z" fill="#f9a824"/></g><g transform="matrix(.754 0 0 .754 -2.053 -49.493)"><path d="m35.191 592 6.719 3.073c.359.164.59.527.59.927s-.231.763-.59.927c-4.418 2.021-14.734 6.739-17.358 7.939-.391.179-.839.179-1.231 0-2.623-1.2-12.939-5.918-17.358-7.939-.359-.164-.589-.527-.589-.927s.23-.763.589-.927l6.72-3.073z" fill="#f44336"/></g><g transform="matrix(.827 0 0 .986 -4.456 -193.901)"><path d="m24.188 589.715c.358-.137.766-.137 1.124 0 2.394.919 11.807 4.529 15.839 6.076.327.125.538.403.538.709s-.211.584-.538.709c-4.032 1.547-13.445 5.157-15.839 6.076-.358.137-.766.137-1.124 0-2.394-.919-11.807-4.529-15.839-6.076-.327-.125-.538-.403-.538-.709s.211-.584.538-.709c4.032-1.547 13.445-5.157 15.839-6.076z" fill="#8bc349"/></g><g transform="matrix(.667 0 0 .667 -4.123 388)"><circle cx="14" cy="30" r="1"/></g><g transform="scale(.667)"><path d="m8.864 595.475-5.613 2.567c-.759.347-1.251 1.112-1.251 1.958s.492 1.611 1.251 1.958l5.613 2.567-5.613 2.567c-.759.347-1.251 1.112-1.251 1.958s.492 1.611 1.251 1.958l1.333.61c.502.229 1.096.008 1.325-.494.23-.502.009-1.095-.493-1.325l-1.333-.61c-.053-.024-.083-.08-.083-.139s.03-.115.083-.139l7.185-3.286 11.62 5.314c.707.323 1.517.323 2.224 0 1.452-.664 3.687-1.686 7.504-3.432.502-.23.723-.824.494-1.325-.23-.502-.824-.723-1.325-.494-3.818 1.746-6.053 2.768-7.505 3.432-.178.082-.382.082-.56 0 0 0-19.637-8.981-19.637-8.981-.053-.024-.083-.08-.083-.139s.03-.115.083-.139l7.185-3.286 11.62 5.314c.707.323 1.517.323 2.224 0l11.62-5.314 7.185 3.286c.053.024.083.08.083.139s-.03.115-.083.139c0 0-9.333 4.269-9.333 4.269-.502.229-.723.823-.493 1.325.229.502.823.723 1.325.493l1.316-.601 7.185 3.286c.053.024.083.08.083.139s-.03.115-.083.139c0 0-19.637 8.981-19.637 8.981-.178.082-.382.082-.56 0-2.209-1.01-12.804-5.856-12.804-5.856-.502-.229-1.096-.008-1.325.494-.23.502-.009 1.096.493 1.325 0 0 10.595 4.846 12.804 5.856.707.324 1.517.324 2.224 0 2.968-1.357 14.638-6.695 19.637-8.981.759-.347 1.251-1.112 1.251-1.958s-.492-1.611-1.251-1.958l-5.613-2.567 5.613-2.567c.759-.347 1.251-1.112 1.251-1.958s-.492-1.611-1.251-1.958l-5.613-2.567 5.613-2.567c.759-.347 1.251-1.112 1.251-1.958s-.492-1.611-1.251-1.958l-19.637-8.981c-.707-.324-1.517-.324-2.224 0-.333.152-1.304.596-1.304.596-.502.23-.723.824-.493 1.325.229.502.823.723 1.325.494 0 0 .971-.444 1.304-.596.178-.082.382-.082.56 0 0 0 19.637 8.981 19.637 8.981.053.024.083.08.083.139s-.03.115-.083.139c0 0-19.637 8.981-19.637 8.981-.178.082-.382.082-.56 0 0 0-19.637-8.981-19.637-8.981-.053-.024-.083-.08-.083-.139s.03-.115.083-.139c0 0 15.563-7.118 15.563-7.118.502-.23.723-.824.494-1.326-.23-.502-.823-.723-1.325-.493-4.21 1.925-12.303 5.627-15.564 7.118-.759.347-1.251 1.112-1.251 1.958s.492 1.611 1.251 1.958z"/></g></g></g></svg>