<?xml version="1.0" encoding="UTF-8" standalone="no"?>
<svg
   clip-rule="evenodd"
   fill-rule="evenodd"
   height="512"
   stroke-linejoin="round"
   stroke-miterlimit="2"
   viewBox="0 0 48 48"
   width="512"
   version="1.1"
   id="svg6"
   sodipodi:docname="overlay-switch-close.svg"
   inkscape:version="1.4.3 (0d15f75042, 2025-12-25)"
   xmlns:inkscape="http://www.inkscape.org/namespaces/inkscape"
   xmlns:sodipodi="http://sodipodi.sourceforge.net/DTD/sodipodi-0.dtd"
   xmlns="http://www.w3.org/2000/svg"
   xmlns:svg="http://www.w3.org/2000/svg">
  <defs
     id="defs6" />
  <sodipodi:namedview
     id="namedview6"
     pagecolor="#ffffff"
     bordercolor="#000000"
     borderopacity="0.25"
     inkscape:showpageshadow="2"
     inkscape:pageopacity="0.0"
     inkscape:pagecheckerboard="0"
     inkscape:deskcolor="#d1d1d1"
     inkscape:zoom="0.8010194"
     inkscape:cx="142.94285"
     inkscape:cy="162.2932"
     inkscape:window-width="2560"
     inkscape:window-height="1375"
     inkscape:window-x="2240"
     inkscape:window-y="0"
     inkscape:window-maximized="1"
     inkscape:current-layer="svg6" />
  <g
     transform="matrix(1,0,0,0.76872306,0,-437.16446)"
     id="g6">
    <g
       id="FLAT-LINE"
       transform="scale(1.5)">
      <g
         transform="matrix(0.754,0,0,0.754,-2.053,-49.493)"
         id="g1">
        <path
           d="m 12.683,600 h 22.508 l 6.719,3.073 c 0.359,0.164 0.59,0.527 0.59,0.927 0,0.4 -0.231,0.763 -0.59,0.927 -4.418,2.021 -14.734,6.739 -17.358,7.939 -0.391,0.179 -0.839,0.179 -1.231,0 -2.623,-1.2 -12.939,-5.918 -17.358,-7.939 C 5.604,604.763 5.374,604.4 5.374,604 c 0,-0.4 0.23,-0.763 0.589,-0.927 z"
           fill="#f9a824"
           id="path1" />
      </g>
      <g
         transform="matrix(0.754,0,0,0.754,-2.053,-49.493)"
         id="g2">
        <path
           d="m 35.191,592 6.719,3.073 c 0.359,0.164 0.59,0.527 0.59,0.927 0,0.4 -0.231,0.763 -0.59,0.927 -4.418,2.021 -14.734,6.739 -17.358,7.939 -0.391,0.179 -0.839,0.179 -1.231,0 -2.623,-1.2 -12.939,-5.918 -17.358,-7.939 C 5.604,596.763 5.374,596.4 5.374,596 c 0,-0.4 0.23,-0.763 0.589,-0.927 L 12.683,592 Z"
           fill="#f44336"
           id="path2" />
      </g>
      <g
         transform="matrix(0.827,0,0,0.986,-4.456,-193.901)"
         id="g3">
        <path
           d="m 24.188,589.715 c 0.358,-0.137 0.766,-0.137 1.124,0 2.394,0.919 11.807,4.529 15.839,6.076 0.327,0.125 0.538,0.403 0.538,0.709 0,0.306 -0.211,0.584 -0.538,0.709 -4.032,1.547 -13.445,5.157 -15.839,6.076 -0.358,0.137 -0.766,0.137 -1.124,0 -2.394,-0.919 -11.807,-4.529 -15.839,-6.076 -0.327,-0.125 -0.538,-0.403 -0.538,-0.709 0,-0.306 0.211,-0.584 0.538,-0.709 4.032,-1.547 13.445,-5.157 15.839,-6.076 z"
           fill="#8bc349"
           id="path3" />
      </g>
      <g
         transform="matrix(0.667,0,0,0.667,-4.123,388)"
         id="g4">
        <circle
           cx="14"
           cy="30"
           r="1"
           id="circle3" />
      </g>
      <g
         transform="scale(0.667)"
         id="g5">
        <path
           d="m 8.864,595.475 -5.613,2.567 C 2.492,598.389 2,599.154 2,600 c 0,0.846 0.492,1.611 1.251,1.958 l 5.613,2.567 -5.613,2.567 C 2.492,607.439 2,608.204 2,609.05 c 0,0.846 0.492,1.611 1.251,1.958 l 1.333,0.61 c 0.502,0.229 1.096,0.008 1.325,-0.494 0.23,-0.502 0.009,-1.095 -0.493,-1.325 l -1.333,-0.61 C 4.03,609.165 4,609.109 4,609.05 c 0,-0.059 0.03,-0.115 0.083,-0.139 l 7.185,-3.286 11.62,5.314 c 0.707,0.323 1.517,0.323 2.224,0 1.452,-0.664 3.687,-1.686 7.504,-3.432 0.502,-0.23 0.723,-0.824 0.494,-1.325 -0.23,-0.502 -0.824,-0.723 -1.325,-0.494 -3.818,1.746 -6.053,2.768 -7.505,3.432 -0.178,0.082 -0.382,0.082 -0.56,0 0,0 -19.637,-8.981 -19.637,-8.981 C 4.03,600.115 4,600.059 4,600 c 0,-0.059 0.03,-0.115 0.083,-0.139 l 7.185,-3.286 11.62,5.314 c 0.707,0.323 1.517,0.323 2.224,0 l 11.62,-5.314 7.185,3.286 C 43.97,599.885 44,599.941 44,600 c 0,0.059 -0.03,0.115 -0.083,0.139 0,0 -9.333,4.269 -9.333,4.269 -0.502,0.229 -0.723,0.823 -0.493,1.325 0.229,0.502 0.823,0.723 1.325,0.493 l 1.316,-0.601 7.185,3.286 c 0.053,0.024 0.083,0.08 0.083,0.139 0,0.059 -0.03,0.115 -0.083,0.139 0,0 -19.637,8.981 -19.637,8.981 -0.178,0.082 -0.382,0.082 -0.56,0 -2.209,-1.01 -12.804,-5.856 -12.804,-5.856 -0.502,-0.229 -1.096,-0.008 -1.325,0.494 -0.23,0.502 -0.009,1.096 0.493,1.325 0,0 10.595,4.846 12.804,5.856 0.707,0.324 1.517,0.324 2.224,0 2.968,-1.357 14.638,-6.695 19.637,-8.981 0.759,-0.347 1.251,-1.112 1.251,-1.958 0,-0.846 -0.492,-1.611 -1.251,-1.958 l -5.613,-2.567 5.613,-2.567 C 45.508,601.611 46,600.846 46,600 c 0,-0.846 -0.492,-1.611 -1.251,-1.958 l -5.613,-2.567 5.613,-2.567 C 45.508,592.561 46,591.796 46,590.95 c 0,-0.846 -0.492,-1.611 -1.251,-1.958 l -19.637,-8.981 c -0.707,-0.324 -1.517,-0.324 -2.224,0 -0.333,0.152 -1.304,0.596 -1.304,0.596 -0.502,0.23 -0.723,0.824 -0.493,1.325 0.229,0.502 0.823,0.723 1.325,0.494 0,0 0.971,-0.444 1.304,-0.596 0.178,-0.082 0.382,-0.082 0.56,0 0,0 19.637,8.981 19.637,8.981 0.053,0.024 0.083,0.08 0.083,0.139 0,0.059 -0.03,0.115 -0.083,0.139 0,0 -19.637,8.981 -19.637,8.981 -0.178,0.082 -0.382,0.082 -0.56,0 0,0 -19.637,-8.981 -19.637,-8.981 C 4.03,591.065 4,591.009 4,590.95 c 0,-0.059 0.03,-0.115 0.083,-0.139 0,0 15.563,-7.118 15.563,-7.118 0.502,-0.23 0.723,-0.824 0.494,-1.326 -0.23,-0.502 -0.823,-0.723 -1.325,-0.493 -4.21,1.925 -12.303,5.627 -15.564,7.118 C 2.492,589.339 2,590.104 2,590.95 c 0,0.846 0.492,1.611 1.251,1.958 z"
           id="path4" />
      </g>
    </g>
  </g>
</svg>
